<svg class="animated" id="freepik_stories-buddies" xmlns="http://www.w3.org/2000/svg" viewBox="0 0 500 500" version="1.1" xmlns:xlink="http://www.w3.org/1999/xlink" xmlns:svgjs="http://svgjs.com/svgjs"><style>svg#freepik_stories-buddies:not(.animated) .animable {opacity: 0;}svg#freepik_stories-buddies.animated #freepik--Shadows--inject-128 {animation: 1.5s Infinite  linear floating;animation-delay: 0s;}svg#freepik_stories-buddies.animated #freepik--Plants--inject-128 {animation: 1.5s Infinite  linear wind;animation-delay: 0s;}svg#freepik_stories-buddies.animated #freepik--character-1--inject-128 {animation: 1.5s Infinite  linear floating;animation-delay: 0s;}svg#freepik_stories-buddies.animated #freepik--character-2--inject-128 {animation: 1.5s Infinite  linear floating;animation-delay: 0s;}svg#freepik_stories-buddies.animated #freepik--Clouds--inject-128 {animation: 1.5s Infinite  linear wind;animation-delay: 0s;}            @keyframes floating {                0% {                    opacity: 1;                    transform: translateY(0px);                }                50% {                    transform: translateY(-10px);                }                100% {                    opacity: 1;                    transform: translateY(0px);                }            }                    @keyframes wind {                0% {                    transform: rotate( 0deg );                }                25% {                    transform: rotate( 1deg );                }                75% {                    transform: rotate( -1deg );                }            }        </style><g id="freepik--Floor--inject-128" style="transform-origin: 250px 350.92px 0px;" class="animable"><ellipse cx="250" cy="350.92" rx="217.05" ry="127.88" style="fill: rgb(245, 245, 245); transform-origin: 250px 350.92px 0px;" id="el83pq0kw1dpc" class="animable"></ellipse></g><g id="freepik--Shadows--inject-128" style="transform-origin: 248.275px 387.78px 0px;" class="animable"><ellipse cx="176.21" cy="356.29" rx="24.28" ry="14.02" style="fill: rgb(224, 224, 224); transform-origin: 176.21px 356.29px 0px;" id="el6gzb004qv2r" class="animable"></ellipse><ellipse cx="311.88" cy="414.39" rx="32.74" ry="18.9" style="fill: rgb(224, 224, 224); transform-origin: 311.88px 414.39px 0px;" id="el4jetwyg5js3" class="animable"></ellipse></g><g id="freepik--Plants--inject-128" style="transform-origin: 247.955px 325.674px 0px;" class="animable animator-active"><path d="M410.66,347.79l10,5.81s-5.05-16.12-2.25-32.33a31.15,31.15,0,0,1,4.07-10.8c.79-1.63,6.82-11.75,1.51-16.41s-17.78,4.61-17.22,29.59A97.12,97.12,0,0,0,410.66,347.79Z" style="fill: rgb(186, 104, 200); transform-origin: 416.453px 323.25px 0px;" id="el8peed2uclfk" class="animable"></path><g id="eldb3pd9tbkvu"><path d="M410.66,347.79l10,5.81s-5.05-16.12-2.25-32.33a31.15,31.15,0,0,1,4.07-10.8c.79-1.63,6.82-11.75,1.51-16.41s-17.78,4.61-17.22,29.59A97.12,97.12,0,0,0,410.66,347.79Z" style="opacity: 0.5; mix-blend-mode: overlay; transform-origin: 416.453px 323.25px 0px;" class="animable"></path></g><path d="M415.31,351a.5.5,0,0,1-.47-.33c0-.1-3.82-10.62-3.62-27.48s9.12-26,9.21-26.12a.5.5,0,0,1,.71,0,.49.49,0,0,1,0,.7c-.08.09-8.72,8.88-8.91,25.42s3.52,27,3.56,27.13a.5.5,0,0,1-.3.64A.47.47,0,0,1,415.31,351Z" style="fill: rgb(255, 255, 255); transform-origin: 416.248px 323.961px 0px;" id="elclr1rhgoj3s" class="animable"></path><path d="M418.42,352.33,435,362.05s7.57-1.11,7-8.24-3.65-8.8.18-11.93,4.82-3.34,4.64-6.41-2.25-4.41-3.22-5.62-3.68-3.77-1.78-7.47,4.49-7.28.66-9c-2.29-1-6.14.26-8.69,3s-4.65,4.65-7.07,5.28-7.46.68-7.29,4.84,1.25,5.61.24,7.45C417.72,337.43,409.59,339.3,418.42,352.33Z" style="fill: rgb(186, 104, 200); transform-origin: 430.613px 337.545px 0px;" id="el8pog61u0ond" class="animable"></path><path d="M425.15,356.79a.5.5,0,0,1-.49-.46c0-.25-1.83-24.92,15.32-41.12a.5.5,0,1,1,.68.72c-16.79,15.88-15,40.08-15,40.32a.51.51,0,0,1-.46.54Z" style="fill: rgb(255, 255, 255); transform-origin: 432.736px 335.906px 0px;" id="els7300pb7ang" class="animable"></path><path d="M428.12,335.66a.5.5,0,0,1-.5-.46,14,14,0,0,0-5-9.79.5.5,0,0,1,.59-.81,14.73,14.73,0,0,1,5.42,10.53.5.5,0,0,1-.47.53Z" style="fill: rgb(255, 255, 255); transform-origin: 425.521px 330.082px 0px;" id="el2hmxera2tbl" class="animable"></path><path d="M426.9,339.87a.5.5,0,0,1-.34-.13.49.49,0,0,1,0-.7c.18-.2,4.5-4.88,14.49-3.51a.5.5,0,1,1-.13,1c-9.47-1.3-13.58,3.14-13.62,3.19A.5.5,0,0,1,426.9,339.87Z" style="fill: rgb(255, 255, 255); transform-origin: 433.951px 337.576px 0px;" id="el0k6tj1likzzq" class="animable"></path><path d="M85.21,344.17,75.2,350s5-16.12,2.25-32.33a31.36,31.36,0,0,0-4.07-10.8c-.79-1.63-6.82-11.75-1.51-16.41S89.64,295.05,89.08,320A96.85,96.85,0,0,1,85.21,344.17Z" style="fill: rgb(186, 104, 200); transform-origin: 79.4004px 319.648px 0px;" id="elde2tlab5fj8" class="animable"></path><g id="el937lpjapyzm"><path d="M85.21,344.17,75.2,350s5-16.12,2.25-32.33a31.36,31.36,0,0,0-4.07-10.8c-.79-1.63-6.82-11.75-1.51-16.41S89.64,295.05,89.08,320A96.85,96.85,0,0,1,85.21,344.17Z" style="opacity: 0.5; mix-blend-mode: overlay; transform-origin: 79.4004px 319.648px 0px;" class="animable"></path></g><path d="M80.55,347.37l-.17,0a.5.5,0,0,1-.3-.64c0-.1,3.77-10.46,3.57-27.13s-8.83-25.33-8.92-25.42a.49.49,0,0,1,0-.7.5.5,0,0,1,.71,0c.09.09,9,9.15,9.21,26.12S81.06,346.94,81,347A.48.48,0,0,1,80.55,347.37Z" style="fill: rgb(255, 255, 255); transform-origin: 79.6191px 320.352px 0px;" id="elrhmp6z55wj9" class="animable"></path><path d="M77.45,348.71l-16.54,9.72s-7.57-1.11-7-8.24,3.64-8.8-.19-11.93-4.81-3.34-4.63-6.41,2.25-4.41,3.22-5.62,3.68-3.77,1.77-7.47-4.48-7.28-.65-9c2.29-1,6.14.25,8.69,3s4.65,4.65,7.07,5.28,7.45.68,7.28,4.84-1.25,5.61-.24,7.45C78.15,333.81,86.27,335.68,77.45,348.71Z" style="fill: rgb(186, 104, 200); transform-origin: 65.2754px 333.924px 0px;" id="elwwpyftjp89" class="animable"></path><path d="M70.71,353.17h0a.51.51,0,0,1-.46-.54c0-.24,1.78-24.45-15-40.32a.49.49,0,0,1,0-.7.5.5,0,0,1,.71,0c17.14,16.2,15.34,40.87,15.32,41.12A.5.5,0,0,1,70.71,353.17Z" style="fill: rgb(255, 255, 255); transform-origin: 63.2227px 332.318px 0px;" id="ela4520zp4nc" class="animable"></path><path d="M67.75,332h0a.5.5,0,0,1-.46-.53A14.7,14.7,0,0,1,72.67,321a.5.5,0,1,1,.58.81,14,14,0,0,0-5,9.79A.5.5,0,0,1,67.75,332Z" style="fill: rgb(255, 255, 255); transform-origin: 70.3906px 326.439px 0px;" id="elvcupziml3fn" class="animable"></path><path d="M69,336.25a.49.49,0,0,1-.37-.16S64.4,331.61,55,332.9a.5.5,0,0,1-.14-1c10-1.38,14.32,3.31,14.5,3.51a.48.48,0,0,1,0,.7A.46.46,0,0,1,69,336.25Z" style="fill: rgb(255, 255, 255); transform-origin: 61.9688px 333.947px 0px;" id="eltqta5smym9l" class="animable"></path></g><g id="freepik--character-1--inject-128" style="transform-origin: 183.855px 196.23px 0px;" class="animable"><path d="M186.79,220.2l22,26.76s-6,8.6-5.86,27.11a12,12,0,0,0,9.27,6.27c3.94.49,7.81-2.19,7.81-2.19l8.69-27.53a14.74,14.74,0,0,0-1-11.38l-14.87-28.15Z" style="fill: rgb(148, 89, 89); transform-origin: 208.096px 245.744px 0px;" id="elhw6maoq8r5n" class="animable"></path><path d="M202.92,274.07a16,16,0,0,0,8.84,4.72c5.41.8,8.24-.64,8.24-.64l-8.1,26h-6.29l-2.27-6.4S202.61,281.85,202.92,274.07Z" style="fill: rgb(186, 104, 200); transform-origin: 211.422px 289.109px 0px;" id="el1ohsuc3263j" class="animable"></path><path d="M200.24,309.76a3.7,3.7,0,0,0-.41,2.43c.33,1.13,2.89,2.71,3.45,3.57s.86,2.75,2.35,5.47,6.94,7.35,13.19,7.34c2.45,0,6.06-2,6.06-4.76Z" style="fill: rgb(38, 50, 56); transform-origin: 212.326px 319.166px 0px;" id="el5ztvn0gjek" class="animable"></path><path d="M203.28,296.33a9.57,9.57,0,0,1,1.17,1,2.74,2.74,0,0,1,.78,1.69c.07,1,.26,2.54.76,2.88,0,0,.41-5.82,3.92-5.86s5.2,1.75,5.13,2.93a20.37,20.37,0,0,1-1.14,3.94s2.94,8.49,3.84,10.29,3,4,4.92,5.88,4.77,6.48-2.06,8.12-14.19-5.39-14.74-7.64c-.29-1.23-.86-4.26-3-5.9s-2.65-3.33-2.65-3.93-.16-2.22,1.17-7A11.67,11.67,0,0,0,202,298c-.2-2.05.19-3.3,1.21-3.3Z" style="fill: rgb(55, 71, 79); transform-origin: 212.561px 311.072px 0px;" id="el2tro4ex6tvc" class="animable"></path><path d="M220.6,327.23c6.83-1.64,3.94-6.28,2.06-8.12a43.78,43.78,0,0,1-3.3-3.52,10.62,10.62,0,0,0-5.15.48,8.43,8.43,0,0,0-5.44,7.18C211.65,325.78,216.23,328.28,220.6,327.23Z" style="fill: rgb(255, 255, 255); transform-origin: 216.836px 321.471px 0px;" id="elrflni4255m" class="animable"></path><path d="M210.43,314.4a.5.5,0,0,1-.3-.9,9,9,0,0,1,7.59-1.1.5.5,0,0,1,.33.62.49.49,0,0,1-.63.33,8.16,8.16,0,0,0-6.7,1A.52.52,0,0,1,210.43,314.4Z" style="fill: rgb(235, 235, 235); transform-origin: 214px 313.205px 0px;" id="elcgeth39ffad" class="animable"></path><path d="M209.24,311.29a.51.51,0,0,1-.41-.2.51.51,0,0,1,.11-.7,9,9,0,0,1,7.59-1.1.5.5,0,0,1,.33.62.49.49,0,0,1-.63.33,8.09,8.09,0,0,0-6.7,1A.52.52,0,0,1,209.24,311.29Z" style="fill: rgb(235, 235, 235); transform-origin: 212.809px 310.096px 0px;" id="el3rmmug9ghnf" class="animable"></path><path d="M208,308.2a.49.49,0,0,1-.4-.21.51.51,0,0,1,.11-.7,9.1,9.1,0,0,1,7.59-1.1.5.5,0,0,1-.3,1,8.1,8.1,0,0,0-6.7,1A.47.47,0,0,1,208,308.2Z" style="fill: rgb(235, 235, 235); transform-origin: 211.59px 307.014px 0px;" id="elv395sc7h2rn" class="animable"></path><path d="M206.93,305.31a.51.51,0,0,1-.41-.2.51.51,0,0,1,.11-.7,9,9,0,0,1,7.59-1.1.49.49,0,0,1,.32.62.48.48,0,0,1-.62.33,8.16,8.16,0,0,0-6.7,1A.52.52,0,0,1,206.93,305.31Z" style="fill: rgb(235, 235, 235); transform-origin: 210.496px 304.115px 0px;" id="elh7eenofmhqv" class="animable"></path><path d="M185.21,226.65l5.34,31.16a11.35,11.35,0,0,1-11.18,13.27h-24.8s-4.54-.4-4.54-7.67c0-2.85,3.13-7.89,3.13-7.89s8.67-3.63,14.56-3.35l-9.1-28,6-4.92Z" style="fill: rgb(148, 89, 89); transform-origin: 170.373px 245.164px 0px;" id="elcg2vtz2o27" class="animable"></path><path d="M154.57,271.08l-18.69.14s-9.08.88-9.08-5.24,8.2-6.44,8.2-6.44a31,31,0,0,0,7-.62c3.08-.76,11.14-3.4,11.14-3.4S149.47,265.62,154.57,271.08Z" style="fill: rgb(186, 104, 200); transform-origin: 140.686px 263.391px 0px;" id="el6i92oay25v" class="animable"></path><path d="M119.6,258.38a2,2,0,0,0-1.92.16c-.83.65-1.65,4.77-1,12.12,0,0-3.5,7.31-3.5,13.83s2.09,12,8,12Z" style="fill: rgb(38, 50, 56); transform-origin: 117.18px 277.348px 0px;" id="elo0un3iczci" class="animable"></path><path d="M135,259.54l-.36,2.26a2.76,2.76,0,0,1-2,2.21,6,6,0,0,0-4,3.74s8.44-4.33,8.44,3.33c0,1.09-1.15,2.57-5.52,3.66l-3.21,5.72s-.74,6.56-1.07,9.73-2.19,6.33-6.08,6.33-7.58-6.64-6.66-13.17a69.29,69.29,0,0,1,3.52-13.2s-.9-8.57,1.54-11.77c1.29-1.7,11,.34,12,.16s6-2.13,6,1C137.53,259.5,135.79,259.58,135,259.54Z" style="fill: rgb(55, 71, 79); transform-origin: 126px 277.109px 0px;" id="elaqje6aw90b" class="animable"></path><path d="M127.28,290.19l.41-3.83c-4.83-4.81-11.5-2.61-13.26-1.91-.39,6.16,3.09,12.07,6.77,12.07C125.09,296.52,126.94,293.36,127.28,290.19Z" style="fill: rgb(255, 255, 255); transform-origin: 121.045px 289.928px 0px;" id="elhtfqm8yzhio" class="animable"></path><path d="M128,284.22a.5.5,0,0,1-.37-.17,11.89,11.89,0,0,0-6.79-3.1.5.5,0,0,1-.44-.56A.51.51,0,0,1,121,280a12.69,12.69,0,0,1,7.4,3.42.5.5,0,0,1,0,.7A.51.51,0,0,1,128,284.22Z" style="fill: rgb(235, 235, 235); transform-origin: 124.469px 282.107px 0px;" id="eld4whgcdqxzq" class="animable"></path><path d="M128.29,281.12a.54.54,0,0,1-.37-.16,11.78,11.78,0,0,0-6.79-3.1.5.5,0,0,1,.13-1,12.61,12.61,0,0,1,7.4,3.42.5.5,0,0,1,0,.71A.48.48,0,0,1,128.29,281.12Z" style="fill: rgb(235, 235, 235); transform-origin: 124.75px 278.988px 0px;" id="el1c8e413bcsi" class="animable"></path><path d="M129.83,278.41a.5.5,0,0,1-.34-.13,23.1,23.1,0,0,0-6.93-4,.5.5,0,1,1,.35-.94,24,24,0,0,1,7.26,4.22.51.51,0,0,1,0,.71A.5.5,0,0,1,129.83,278.41Z" style="fill: rgb(235, 235, 235); transform-origin: 126.275px 275.859px 0px;" id="elork9eovjgu" class="animable"></path><path d="M131.56,275.24l-.11,0a12.65,12.65,0,0,1-6.65-4.72.52.52,0,0,1,.1-.71.51.51,0,0,1,.7.1,11.89,11.89,0,0,0,6.07,4.36.5.5,0,0,1-.11,1Z" style="fill: rgb(235, 235, 235); transform-origin: 128.41px 272.494px 0px;" id="ellip4ysk7rw9" class="animable"></path><path d="M155.39,75s-4.13,6.5-6.36,10.1-4.7,7.87-16,9.18-14,.42-17.44,7.41,4.45,22,21.64,23.73,43.35-4.86,48-15.33S155.39,75,155.39,75Z" style="fill: rgb(38, 50, 56); transform-origin: 150.229px 100.348px 0px;" id="elscz8lr4kvp" class="animable"></path><path d="M228.74,122.49s5.66-11.55,5.8-13.06-.81-3.5-.27-7.17c.51-3.5,1.46-5.83,1.52-8.52s.05-3.14,1.21-3.46,3.23,1.86,3.36,6.51a17.9,17.9,0,0,0,2.71-4.94c.79-2.52,2.73-6.57,5.19-5.54s5.9,3.88,6.27,10.49c.07,1.23-2.27,9.26-9.78,17.28l-3.67,14.12s-4.15,1.84-7.79.37S228.74,122.49,228.74,122.49Z" style="fill: rgb(148, 89, 89); transform-origin: 241.635px 107.643px 0px;" id="elj2fwgjbv6ym" class="animable"></path><path d="M186.33,118c4.9,0,14.36,3.13,21.66,5.76l17.22,6.21,3.53-7.45s4,7,12.34,5.71L238,141.05a8,8,0,0,1-9.59,6l-27.07-6.17Z" style="fill: rgb(186, 104, 200); transform-origin: 213.703px 132.627px 0px;" id="elmnfv263u6a" class="animable"></path><g id="elhxyixx1m2fd"><path d="M186.33,118c4.9,0,14.36,3.13,21.66,5.76l17.22,6.21,3.53-7.45s4,7,12.34,5.71L238,141.05a8,8,0,0,1-9.59,6l-27.07-6.17Z" style="fill: rgb(255, 255, 255); opacity: 0.3; transform-origin: 213.703px 132.627px 0px;" class="animable"></path></g><path d="M134.52,174l.27,12.91a19.3,19.3,0,0,1,6.47,5.12c2.25,3.12,6.12,5.61,6.52,6.12s.89,2.34-2,2.34a9.15,9.15,0,0,1-5.18-1.91s.43,3.48,2.14,5.24,4,2.7,3.31,4.87-9.07,4.41-13.14,1.86-8.08-12.44-9.4-18.49-3.48-17-3.48-17a8.93,8.93,0,0,1,7.68-4.12C133.14,171,134.52,174,134.52,174Z" style="fill: rgb(148, 89, 89); transform-origin: 134.059px 191.314px 0px;" id="elbu3jiy6roeb" class="animable"></path><path d="M153.94,119.64a86.46,86.46,0,0,1,12.43-2.54l20,.87s28.35,28.15,11.47,39.33c0,0-2.08,4.27-2.08,19.41,0,0-5.17,5.16-17.17,5.16s-22.17-7.46-22.17-7.46L159.65,162a7.32,7.32,0,0,0-.21-4.44l-5.25-14.3Z" style="fill: rgb(186, 104, 200); transform-origin: 178.572px 149.486px 0px;" id="elnw7mhm6oslp" class="animable"></path><path d="M178,159.29a12.29,12.29,0,0,1-5.8-1.38,14,14,0,0,1-6.41-7.86.5.5,0,0,1,.34-.62.51.51,0,0,1,.62.34,13.23,13.23,0,0,0,5.93,7.26c3,1.57,6.65,1.67,10.87.29a.5.5,0,0,1,.64.31.52.52,0,0,1-.32.64A19,19,0,0,1,178,159.29Z" style="fill: rgb(186, 104, 200); transform-origin: 174.992px 154.352px 0px;" id="elrzulwmtuz4b" class="animable"></path><g id="ellazq0mxenji"><path d="M178,159.29a12.29,12.29,0,0,1-5.8-1.38,14,14,0,0,1-6.41-7.86.5.5,0,0,1,.34-.62.51.51,0,0,1,.62.34,13.23,13.23,0,0,0,5.93,7.26c3,1.57,6.65,1.67,10.87.29a.5.5,0,0,1,.64.31.52.52,0,0,1-.32.64A19,19,0,0,1,178,159.29Z" style="opacity: 0.2; transform-origin: 174.992px 154.352px 0px;" class="animable"></path></g><path d="M161.83,69.7s-.75-5.78-1.76-5.81-1.52,4.88-1.52,4.88-4.61-1-4.29.4,5.57,3.46,5.57,3.46Z" style="fill: rgb(38, 50, 56); transform-origin: 158.037px 68.2598px 0px;" id="elgh2rn5wk7tc" class="animable"></path><path d="M152.07,88.26c.1,16.08,13.25,19,13.25,19L195,97.35s2.35-1.57,3.53-5.73a18.57,18.57,0,0,0,.68-5.24v0c0-6.76-4.09-14.55-14.65-18.13a35.46,35.46,0,0,0-7.11-1.62,33.47,33.47,0,0,0-3.51-.27c-8.56-.26-14.93,2.92-18.53,8.66a20.18,20.18,0,0,0-1.94,4.14A27.53,27.53,0,0,0,152.07,88.26Z" style="fill: rgb(38, 50, 56); transform-origin: 175.639px 86.8027px 0px;" id="eleokuqssrozk" class="animable"></path><path d="M166.37,117.1l1.41,4A11.86,11.86,0,0,0,180.16,129h0a3.8,3.8,0,0,0,3.14-5.22l-2.42-6V96H166.37Z" style="fill: rgb(148, 89, 89); transform-origin: 174.977px 112.529px 0px;" id="ell32dabv8ft" class="animable"></path><path d="M166.37,99.1v.52a29.78,29.78,0,0,0,14.51,17.16V96H166.77Z" style="fill: rgb(112, 56, 56); transform-origin: 173.625px 106.391px 0px;" id="elnb7esohc7u" class="animable"></path><path d="M180.67,71.79c5.13.66,15.69,4.92,15.22,18.52s-3,23.87-10.08,24-22.52-7-22.45-24.65S175.66,71.15,180.67,71.79Z" style="fill: rgb(148, 89, 89); transform-origin: 179.633px 92.9785px 0px;" id="elw0ui7p7oix" class="animable"></path><polygon points="185.93 94.81 184.92 102.74 189.74 101.91 185.93 94.81" style="fill: rgb(112, 56, 56); transform-origin: 187.33px 98.775px 0px;" id="elgu8b9in9x4p" class="animable"></polygon><path d="M179,95.31a1.63,1.63,0,1,0,1.82-1.4A1.63,1.63,0,0,0,179,95.31Z" style="fill: rgb(38, 50, 56); transform-origin: 180.615px 95.5273px 0px;" id="elwcujtosp2xq" class="animable"></path><path d="M189.74,95.55a1.63,1.63,0,1,0,1.82-1.41A1.63,1.63,0,0,0,189.74,95.55Z" style="fill: rgb(38, 50, 56); transform-origin: 191.357px 95.7578px 0px;" id="elngdjlifaw1" class="animable"></path><path d="M193.76,92.65l-2.92-2.28s1.37-1.1,2.48-.19A2.22,2.22,0,0,1,193.76,92.65Z" style="fill: rgb(38, 50, 56); transform-origin: 192.398px 91.2344px 0px;" id="eljqjh4mi9cbc" class="animable"></path><path d="M187.43,104.27a7,7,0,0,1-4.39-1.18s-.29,2.31,1.64,2.76A2.51,2.51,0,0,0,187.43,104.27Z" style="fill: rgb(112, 56, 56); transform-origin: 185.227px 104.486px 0px;" id="el5jv9mn3y8ns" class="animable"></path><path d="M193.1,78s-4.31,18.31-29.61,15.65c0,0-5.26-19.42,10.58-23.47S193.1,78,193.1,78Z" style="fill: rgb(38, 50, 56); transform-origin: 177.877px 81.625px 0px;" id="el4m1mvyxjn35" class="animable"></path><path d="M167.26,95.57s-1-5.41-4.81-5.22c-4.17.22-4.41,4.27-4.24,5.69.44,3.73,3.79,7.54,9.45,7.25Z" style="fill: rgb(148, 89, 89); transform-origin: 162.916px 96.8262px 0px;" id="eluamz3bjb8yn" class="animable"></path><path d="M153.94,119.64s7-1,7.69,9.34c.51,8-7.18,15-7.18,15L134,161.16l.52,12.88s-7.45-3.51-14.46,1.1L118.4,161A14,14,0,0,1,121.91,150C130.21,140.76,148.27,121.26,153.94,119.64Z" style="fill: rgb(186, 104, 200); transform-origin: 139.979px 147.377px 0px;" id="ell9p8fttnf9o" class="animable"></path><g id="elmn1dwy52939"><path d="M153.94,119.64s7-1,7.69,9.34c.51,8-7.18,15-7.18,15L134,161.16l.52,12.88s-7.45-3.51-14.46,1.1L118.4,161A14,14,0,0,1,121.91,150C130.21,140.76,148.27,121.26,153.94,119.64Z" style="fill: rgb(255, 255, 255); opacity: 0.3; transform-origin: 139.979px 147.377px 0px;" class="animable"></path></g><path d="M119,166.31l1,8.83c7-4.61,14.46-1.1,14.46-1.1l-.35-8.81C127.44,161.09,121.1,164.81,119,166.31Z" style="fill: rgb(186, 104, 200); transform-origin: 126.73px 169.238px 0px;" id="el2l98xl1y4vb" class="animable"></path><path d="M239.21,136.06l1.87-7.86c-8.35,1.29-12.34-5.71-12.34-5.71l-3.52,7.45S228.91,137.68,239.21,136.06Z" style="fill: rgb(186, 104, 200); transform-origin: 233.148px 129.385px 0px;" id="elotynfp05b5n" class="animable"></path><path d="M212.79,211.09s-3.86,8.27-17.16,8.6a10.42,10.42,0,0,1-5.12,7l-6.62-7.4L182.81,218l-26.15-44.68s10,7.61,21.89,7.61,17.17-5.45,17.17-5.45Z" style="fill: rgb(55, 71, 79); transform-origin: 184.725px 200.006px 0px;" id="elo9jc00ebkq" class="animable"></path><path d="M193.5,187l-15.88,6.79-1.41,13,6.6,11.28,1.08,1.21,3.39,3.79L183.65,202C190.64,196.37,193.5,187,193.5,187Z" style="fill: rgb(38, 50, 56); transform-origin: 184.855px 205.035px 0px;" id="eliqknou9e49" class="animable"></path><path d="M180.72,201.42l3.17,17.83,1.32,7.4c-13.81,3.55-21.73-4-21.73-4-2.46,4.63-8.91,4.66-8.91,4.66-5.87-33.64,2.09-54,2.09-54s10,7.61,21.89,7.61,17.17-5.45,17.17-5.45C195.72,193.74,180.72,201.42,180.72,201.42Z" style="fill: rgb(55, 71, 79); transform-origin: 174.064px 200.453px 0px;" id="el8nfkkeueq8j" class="animable"></path></g><g id="freepik--character-2--inject-128" style="transform-origin: 314.563px 241.664px 0px;" class="animable"><path d="M339.23,318.13h13.95s6.13-.88,6.13-7.13-8.5-4.71-8.5-4.71a44.42,44.42,0,0,1-11.58-1.84S337.14,313.26,339.23,318.13Z" style="fill: rgb(255, 168, 167); transform-origin: 348.805px 311.289px 0px;" id="elye1k8pcqvqk" class="animable"></path><path d="M277.82,339.72,279.75,361s1.46,4.5,7.65,4.5c2.75,0,3.88-6.53,3.88-6.53s2-8.6,2.61-12,1.26-9.49,1.26-9.49Z" style="fill: rgb(255, 168, 167); transform-origin: 286.484px 351.49px 0px;" id="elwhif3t3hcy" class="animable"></path><path d="M290.21,228.36l-14.72,62.45a49,49,0,0,0-1,16.2l3.37,32.71s9,4.52,17.12,0c0,0,2.6-26.4,1.61-38.19l17-56.84Z" style="fill: rgb(186, 104, 200); transform-origin: 293.906px 285.043px 0px;" id="el17smmmbdiai" class="animable"></path><path d="M303.45,257.78l-10,41.11a26.58,26.58,0,0,0-.09,12.29l2.88,12.6c.48-7.79.82-16.66.35-22.25l17-56.84-1.08-.76-19.09-2.18A26.24,26.24,0,0,0,303.45,257.78Z" style="fill: rgb(186, 104, 200); transform-origin: 303.137px 282.766px 0px;" id="el59xa2dy3xzh" class="animable"></path><g id="el1m0jb8dogac"><path d="M303.45,257.78l-10,41.11a26.58,26.58,0,0,0-.09,12.29l2.88,12.6c.48-7.79.82-16.66.35-22.25l17-56.84-1.08-.76-19.09-2.18A26.24,26.24,0,0,0,303.45,257.78Z" style="opacity: 0.3; transform-origin: 303.137px 282.766px 0px;" class="animable"></path></g><path d="M329.16,226.62s5.49,14.69,2.33,30.38-13.62,41.82-13.62,41.82a41,41,0,0,1,11,2.15c5.9,2,10.36,3.48,10.36,3.48s3.26,5.4,0,13.68l-31.54-.68a14,14,0,0,1-13.27-17.39l11.09-44.14s-10.56-7-12.65-16-1.51-13.26-1.51-13.26Z" style="fill: rgb(186, 104, 200); transform-origin: 315.979px 272.375px 0px;" id="eln95ladrb5m" class="animable"></path><path d="M289,210.91l1.24,17.45s6.68,5.8,18,5.17,17.91-4.19,20.92-6.91l-3.28-9.15Z" style="fill: rgb(255, 168, 167); transform-origin: 309.08px 222.244px 0px;" id="elt1iu8j3xgdo" class="animable"></path><path d="M366.21,305.13a2,2,0,0,1,1.92.16c.83.65,1.65,4.77,1,12.12,0,0,3.5,7.3,3.5,13.83s-2.09,12-8,12Z" style="fill: rgb(38, 50, 56); transform-origin: 368.629px 324.098px 0px;" id="el6genyfeyrzh" class="animable"></path><path d="M350.81,306.29l.36,2.26a2.76,2.76,0,0,0,2,2.21,6,6,0,0,1,4,3.74s-8.43-4.33-8.43,3.33c0,1.09,1.15,2.56,5.52,3.65l3.2,5.73s.74,6.55,1.07,9.73,2.19,6.33,6.09,6.33,7.58-6.64,6.65-13.17a69,69,0,0,0-3.52-13.2s.91-8.57-1.54-11.77c-1.29-1.7-10.95.34-11.95.16s-6-2.23-6,.87A24.89,24.89,0,0,0,350.81,306.29Z" style="fill: rgb(55, 71, 79); transform-origin: 359.838px 323.859px 0px;" id="el6661xid9ekl" class="animable"></path><path d="M358.53,336.94c-.1-1-.26-2.42-.41-3.83,4.83-4.81,11.5-2.62,13.26-1.91.4,6.15-3.09,12.07-6.76,12.07C360.72,343.27,358.87,340.11,358.53,336.94Z" style="fill: rgb(255, 255, 255); transform-origin: 364.766px 336.676px 0px;" id="el6x68t1aevav" class="animable"></path><path d="M357.82,331a.46.46,0,0,1-.33-.13.48.48,0,0,1,0-.7,12.54,12.54,0,0,1,7.4-3.42.5.5,0,1,1,.13,1,12,12,0,0,0-6.8,3.1A.49.49,0,0,1,357.82,331Z" style="fill: rgb(235, 235, 235); transform-origin: 361.398px 328.875px 0px;" id="elz8lby8l1iu" class="animable"></path><path d="M357.52,327.87a.55.55,0,0,1-.34-.13.5.5,0,0,1,0-.71,12.65,12.65,0,0,1,7.4-3.42.5.5,0,0,1,.56.43.49.49,0,0,1-.43.56,11.75,11.75,0,0,0-6.79,3.11A.54.54,0,0,1,357.52,327.87Z" style="fill: rgb(235, 235, 235); transform-origin: 361.088px 325.738px 0px;" id="elp4q9s3jqk4" class="animable"></path><path d="M356,325.16a.5.5,0,0,1-.34-.87,24,24,0,0,1,7.27-4.22.49.49,0,0,1,.64.29.51.51,0,0,1-.3.65,23.1,23.1,0,0,0-6.93,4A.48.48,0,0,1,356,325.16Z" style="fill: rgb(235, 235, 235); transform-origin: 359.549px 322.598px 0px;" id="els1vtkfcgdn8" class="animable"></path><path d="M354.26,322a.49.49,0,0,1-.49-.39.5.5,0,0,1,.38-.59,11.93,11.93,0,0,0,6.06-4.36.5.5,0,1,1,.8.6,12.63,12.63,0,0,1-6.64,4.73Z" style="fill: rgb(235, 235, 235); transform-origin: 357.434px 319.229px 0px;" id="elnl6oi4xdqm" class="animable"></path><path d="M291.88,372.7a3.68,3.68,0,0,1,0,2.46c-.52,1.06-3.32,2.16-4,2.9s-1.33,2.56-3.28,5-8.14,6-14.29,4.88c-2.41-.44-5.61-3-5.12-5.76Z" style="fill: rgb(38, 50, 56); transform-origin: 278.617px 380.426px 0px;" id="eluwkszk1nq7" class="animable"></path><path d="M291.28,358.94a10.52,10.52,0,0,0-1.34.81,2.72,2.72,0,0,0-1.06,1.53c-.25,1-.72,2.45-1.27,2.69,0,0,.63-5.79-2.82-6.46s-5.43.8-5.56,2a20.64,20.64,0,0,0,.42,4.08s-4.4,7.84-5.61,9.45a27.38,27.38,0,0,1-5.88,4.91c-2.18,1.47-5.85,5.53.58,8.36s14.92-2.79,15.86-4.91c.51-1.15,1.61-4,4-5.28s3.2-2.8,3.31-3.39.55-2.15.09-7.12a11.76,11.76,0,0,1,.26-4.76c.56-2,.4-3.28-.6-3.46Z" style="fill: rgb(55, 71, 79); transform-origin: 278.854px 372.217px 0px;" id="elbsta3sifbnu" class="animable"></path><path d="M268.74,386.28c-6.43-2.83-2.76-6.89-.58-8.36A47.93,47.93,0,0,0,272,375a10.67,10.67,0,0,1,5,1.38,8.47,8.47,0,0,1,4.08,8C277.81,386.44,272.86,388.08,268.74,386.28Z" style="fill: rgb(255, 255, 255); transform-origin: 273.117px 381.025px 0px;" id="elyxa4x7pmjer" class="animable"></path><path d="M281.12,375.46a.51.51,0,0,1-.36-.15,8.22,8.22,0,0,0-6.43-2.13.5.5,0,1,1-.12-1,9,9,0,0,1,7.27,2.43.5.5,0,0,1,0,.71A.48.48,0,0,1,281.12,375.46Z" style="fill: rgb(235, 235, 235); transform-origin: 277.697px 373.789px 0px;" id="eluybm9mpzlxg" class="animable"></path><path d="M282.84,372.62a.48.48,0,0,1-.36-.16,8.18,8.18,0,0,0-6.42-2.13.5.5,0,0,1-.13-1,9,9,0,0,1,7.27,2.43.5.5,0,0,1,0,.71A.52.52,0,0,1,282.84,372.62Z" style="fill: rgb(235, 235, 235); transform-origin: 279.42px 370.943px 0px;" id="elji1fys38aef" class="animable"></path><path d="M284.62,369.79a.51.51,0,0,1-.37-.15,8.13,8.13,0,0,0-6.42-2.13.51.51,0,0,1-.56-.44.5.5,0,0,1,.44-.55A9,9,0,0,1,285,369a.49.49,0,0,1,0,.7A.47.47,0,0,1,284.62,369.79Z" style="fill: rgb(235, 235, 235); transform-origin: 281.207px 368.129px 0px;" id="elemzuluj0ns" class="animable"></path><path d="M286.18,367.14a.51.51,0,0,1-.36-.15,8.13,8.13,0,0,0-6.42-2.13.5.5,0,0,1-.56-.44.49.49,0,0,1,.43-.55,9,9,0,0,1,7.27,2.43.49.49,0,0,1,0,.7A.47.47,0,0,1,286.18,367.14Z" style="fill: rgb(235, 235, 235); transform-origin: 282.762px 365.475px 0px;" id="elqpxuqj2cme8" class="animable"></path><path d="M300.17,167.82,274.7,147.11l-10.84-28.19s1.15-14.76-3.72-20.8c-2.65-3.29-12.57-4.23-13.42-.69-.42,1.76,3.61,2.84,2.75,10.18,0,0-4.23-4.9-6.72-3.39-1.45.88,1.38,3.51,2.46,5.79s2.63,7.06,6.47,10.79l8.15,29.26a26.31,26.31,0,0,0,7.28,12.09l21.7,20.55Z" style="fill: rgb(255, 168, 167); transform-origin: 271.258px 138.938px 0px;" id="elzei9egbjoik" class="animable"></path><path d="M304.54,167.82l14.51.52s12.41,2.31,13.45,3.39-.84,21.49-1.8,25.32-3.81,13.43-3.81,13.43,1,6.63,3.13,9.75c0,0-6.73,7.05-22.84,6.11s-21.77-6.8-21.77-6.8l2.72-10.21S276,202.28,287,185.08c4.17-6.51,13.18-17.26,13.18-17.26Z" style="fill: rgb(186, 104, 200); transform-origin: 307.596px 197.123px 0px;" id="ely6b9569ylui" class="animable"></path><g id="elvhjh0zm44ah"><path d="M304.54,167.82l14.51.52s12.41,2.31,13.45,3.39-.84,21.49-1.8,25.32-3.81,13.43-3.81,13.43,1,6.63,3.13,9.75c0,0-6.73,7.05-22.84,6.11s-21.77-6.8-21.77-6.8l2.72-10.21S276,202.28,287,185.08c4.17-6.51,13.18-17.26,13.18-17.26Z" style="opacity: 0.5; transform-origin: 307.596px 197.123px 0px;" class="animable"></path></g><path d="M306.8,211a12.3,12.3,0,0,0,5.81-1.38,14,14,0,0,0,6.41-7.86.5.5,0,0,0-.34-.62.51.51,0,0,0-.62.34,13.23,13.23,0,0,1-5.93,7.26c-3,1.58-6.65,1.67-10.88.29a.49.49,0,0,0-.63.32.51.51,0,0,0,.32.63A18.94,18.94,0,0,0,306.8,211Z" style="fill: rgb(186, 104, 200); transform-origin: 309.818px 206.063px 0px;" id="el3y2cgd5u0y2" class="animable"></path><g id="elqg2pkktxm6r"><path d="M306.8,211a12.3,12.3,0,0,0,5.81-1.38,14,14,0,0,0,6.41-7.86.5.5,0,0,0-.34-.62.51.51,0,0,0-.62.34,13.23,13.23,0,0,1-5.93,7.26c-3,1.58-6.65,1.67-10.88.29a.49.49,0,0,0-.63.32.51.51,0,0,0,.32.63A18.94,18.94,0,0,0,306.8,211Z" style="opacity: 0.7; transform-origin: 309.818px 206.063px 0px;" class="animable"></path></g><path d="M337.43,133.16s.7-9.43,12.7-8.38,17.17,16.61,18,22.58,6,21.23,18.65,15.82a17.7,17.7,0,0,1-21.5,6c-18.28-7-7.88-34.54-25.48-28.57Z" style="fill: rgb(69, 90, 100); transform-origin: 362.105px 147.674px 0px;" id="elntfrbclbb6g" class="animable"></path><path d="M340.91,137.38c0,3.9-2.3,7.05-5.15,7.05s-5.16-3.15-5.16-7.05,2.31-7,5.16-7S340.91,133.48,340.91,137.38Z" style="fill: rgb(186, 104, 200); transform-origin: 335.756px 137.404px 0px;" id="eldgb19k3mrt" class="animable"></path><path d="M331,125.39s2.09-5.44,3.08-5.24.33,5.11.33,5.11,4.71.1,4.07,1.39-6.22,2-6.22,2Z" style="fill: rgb(69, 90, 100); transform-origin: 334.77px 124.396px 0px;" id="ellbdixtyipa" class="animable"></path><path d="M336.14,145.72c-3.88,15.61-17.35,15.36-17.35,15.36L292.3,144.45s-1.91-2.08-2.08-6.41a18.15,18.15,0,0,1,.57-5.24.43.43,0,0,1,0-.05c1.63-6.56,7.41-13.18,18.51-14.18a36.78,36.78,0,0,1,7.3.11,32.63,32.63,0,0,1,3.47.57c8.38,1.76,13.82,6.35,16,12.78a19.57,19.57,0,0,1,.92,4.48A27.63,27.63,0,0,1,336.14,145.72Z" style="fill: rgb(69, 90, 100); transform-origin: 313.639px 139.758px 0px;" id="elu97xhpm9y8p" class="animable"></path><path d="M319.05,168.34l-1.88,5.25a10.26,10.26,0,0,1-10.69,6.75h0a5.24,5.24,0,0,1-4.25-7.37l2.31-5.15.15-20.71,14.51.1Z" style="fill: rgb(255, 168, 167); transform-origin: 310.482px 163.75px 0px;" id="eledb3pr67i9b" class="animable"></path><path d="M304.56,167.09a24.87,24.87,0,0,0,14.61-12.88l0-5-14.51-.1Z" style="fill: rgb(242, 143, 143); transform-origin: 311.865px 158.1px 0px;" id="el3w0os1dryb5" class="animable"></path><path d="M312.23,123c-5.15-.57-16.41,1.09-19.16,14.41s-2.69,23.91,4.15,25.68,23.53-1.47,27.62-18.66S317.25,123.54,312.23,123Z" style="fill: rgb(255, 168, 167); transform-origin: 308.531px 143.213px 0px;" id="elz0qnn46gy9" class="animable"></path><polygon points="301.69 144.12 300.81 152.06 296.32 150.11 301.69 144.12" style="fill: rgb(242, 143, 143); transform-origin: 299.005px 148.09px 0px;" id="el9v5zyfu7g24" class="animable"></polygon><path d="M308.33,146.24a1.63,1.63,0,1,1-1.44-1.8A1.64,1.64,0,0,1,308.33,146.24Z" style="fill: rgb(38, 50, 56); transform-origin: 306.707px 146.061px 0px;" id="el79vt828clfw" class="animable"></path><path d="M297.81,143.93a1.63,1.63,0,1,1-1.44-1.79A1.62,1.62,0,0,1,297.81,143.93Z" style="fill: rgb(38, 50, 56); transform-origin: 296.189px 143.76px 0px;" id="elxnqztwot8t" class="animable"></path><path d="M294.59,140.17l3.38-1.53s-1.08-1.4-2.37-.77A2.23,2.23,0,0,0,294.59,140.17Z" style="fill: rgb(69, 90, 100); transform-origin: 296.26px 138.939px 0px;" id="elr0tcddmr9qf" class="animable"></path><path d="M298.26,155a7,7,0,0,0,4.49-.68s0,2.33-1.93,2.55A2.5,2.5,0,0,1,298.26,155Z" style="fill: rgb(242, 143, 143); transform-origin: 300.506px 155.598px 0px;" id="eleryqpwa9tmq" class="animable"></path><path d="M298.67,126.11s-.12,18.81,25.1,22.19c0,0,9.68-17.63-4.75-25.3S298.67,126.11,298.67,126.11Z" style="fill: rgb(69, 90, 100); transform-origin: 312.809px 134.273px 0px;" id="el37xd1vsyo2p" class="animable"></path><path d="M319.65,149.25s2.26-5,5.91-3.94c4,1.19,3.28,5.19,2.78,6.53-1.31,3.52-5.46,6.44-10.89,4.82Z" style="fill: rgb(255, 168, 167); transform-origin: 323.092px 151.141px 0px;" id="el0vus6an38r4i" class="animable"></path><path d="M332.5,171.73s-4.48-1.23-7.72,5.38S326.72,192,332,197.05s19.39,17.25,19.39,17.25l-.58,24.3a16.59,16.59,0,0,0-6.47,5.12c-2.51,3.5-7,5.54-6.75,7.44s5.8.74,7.37-.89a11.37,11.37,0,0,1-2,5.06c-1.77,2.45-4.61,2.79-2.77,5.72s9.73,2.59,12.27,1.35,5.81-6.6,7.71-12.63,6.53-24,6.72-41.13C366.94,202.59,332.5,171.73,332.5,171.73Z" style="fill: rgb(255, 168, 167); transform-origin: 345.332px 217.477px 0px;" id="elxxf447lq4o" class="animable"></path></g><g id="freepik--Lines--inject-128" style="transform-origin: 250px 63.3594px 0px;" class="animable"><path d="M250,73.63a1,1,0,0,1-1-1V54.09a1,1,0,0,1,2,0V72.63A1,1,0,0,1,250,73.63Z" style="fill: rgb(186, 104, 200); transform-origin: 250px 63.3594px 0px;" id="elztu78i5yoms" class="animable"></path><path d="M243,73.63a1,1,0,0,1-.87-.5l-9.26-16a1,1,0,1,1,1.73-1l9.27,16a1,1,0,0,1-.37,1.36A1,1,0,0,1,243,73.63Z" style="fill: rgb(186, 104, 200); transform-origin: 238.357px 64.6113px 0px;" id="elexmjfbvlshs" class="animable"></path><path d="M257,73.63a1,1,0,0,1-.5-.14,1,1,0,0,1-.37-1.36l9.27-16a1,1,0,1,1,1.73,1l-9.26,16A1,1,0,0,1,257,73.63Z" style="fill: rgb(186, 104, 200); transform-origin: 261.643px 64.6113px 0px;" id="el51t00zlzbyr" class="animable"></path></g><g id="freepik--Clouds--inject-128" style="transform-origin: 379.195px 86.8047px 0px;" class="animable"><path d="M373.22,92.64l7,4V94.15c0-.18,0-.36,0-.53s0-.34,0-.5v-.06h0c.25-3.29,2.74-4.55,5.78-2.8a11.34,11.34,0,0,1,3.46,3.32c.68-4.47,4.33-6.08,8.74-3.54,4.89,2.83,8.86,9.7,8.86,15.36v5.32a2.44,2.44,0,0,0,1.2,2.08l4.13,2.42a5.94,5.94,0,0,1,2.93,5.13,2.44,2.44,0,0,1-3.67,2.12l-38.35-22.15a6.68,6.68,0,0,1-3.34-5.8A2.16,2.16,0,0,1,373.22,92.64Z" style="fill: rgb(230, 230, 230); transform-origin: 392.641px 105.816px 0px;" id="elo2y2rm2fdg" class="animable"></path><path d="M345.47,53.57l5.19,3V54.69c0-.13,0-.26,0-.39s0-.25,0-.37v0h0c.19-2.43,2-3.36,4.28-2.06a8.23,8.23,0,0,1,2.55,2.45c.51-3.31,3.21-4.5,6.47-2.62A14.51,14.51,0,0,1,370.52,63V67a1.8,1.8,0,0,0,.88,1.54l3.06,1.79a4.41,4.41,0,0,1,2.17,3.8,1.81,1.81,0,0,1-2.72,1.56L345.55,59.26A5,5,0,0,1,343.07,55,1.61,1.61,0,0,1,345.47,53.57Z" style="fill: rgb(230, 230, 230); transform-origin: 359.85px 63.3711px 0px;" id="elwmi0m7b21hq" class="animable"></path></g><defs>     <filter id="active" height="200%">         <feMorphology in="SourceAlpha" result="DILATED" operator="dilate" radius="2"></feMorphology>                <feFlood flood-color="#32DFEC" flood-opacity="1" result="PINK"></feFlood>        <feComposite in="PINK" in2="DILATED" operator="in" result="OUTLINE"></feComposite>        <feMerge>            <feMergeNode in="OUTLINE"></feMergeNode>            <feMergeNode in="SourceGraphic"></feMergeNode>        </feMerge>    </filter>    <filter id="hover" height="200%">        <feMorphology in="SourceAlpha" result="DILATED" operator="dilate" radius="2"></feMorphology>                <feFlood flood-color="#ff0000" flood-opacity="0.5" result="PINK"></feFlood>        <feComposite in="PINK" in2="DILATED" operator="in" result="OUTLINE"></feComposite>        <feMerge>            <feMergeNode in="OUTLINE"></feMergeNode>            <feMergeNode in="SourceGraphic"></feMergeNode>        </feMerge>            <feColorMatrix type="matrix" values="0   0   0   0   0                0   1   0   0   0                0   0   0   0   0                0   0   0   1   0 "></feColorMatrix>    </filter></defs></svg>