<svg class="animated" id="freepik_stories-open-source" xmlns="http://www.w3.org/2000/svg" viewBox="0 0 500 500" version="1.1" xmlns:xlink="http://www.w3.org/1999/xlink" xmlns:svgjs="http://svgjs.com/svgjs"><style>svg#freepik_stories-open-source:not(.animated) .animable {opacity: 0;}svg#freepik_stories-open-source.animated #freepik--Shadows--inject-13 {animation: 1.5s Infinite  linear shake;animation-delay: 0s;}svg#freepik_stories-open-source.animated #freepik--Window--inject-13 {animation: 1.5s Infinite  linear floating;animation-delay: 0s;}svg#freepik_stories-open-source.animated #freepik--Clouds--inject-13 {animation: 1.5s Infinite  linear wind;animation-delay: 0s;}            @keyframes shake {                10%, 90% {                    transform: translate3d(-1px, 0, 0);                  }                  20%, 80% {                    transform: translate3d(2px, 0, 0);                  }                  30%, 50%, 70% {                    transform: translate3d(-4px, 0, 0);                  }                  40%, 60% {                    transform: translate3d(4px, 0, 0);                  }            }                    @keyframes floating {                0% {                    opacity: 1;                    transform: translateY(0px);                }                50% {                    transform: translateY(-10px);                }                100% {                    opacity: 1;                    transform: translateY(0px);                }            }                    @keyframes wind {                0% {                    transform: rotate( 0deg );                }                25% {                    transform: rotate( 1deg );                }                75% {                    transform: rotate( -1deg );                }            }        </style><g id="freepik--Floor--inject-13" style="transform-origin: 250px 351.73px 0px;" class="animable"><ellipse cx="250" cy="351.73" rx="234.84" ry="135.59" style="fill: rgb(245, 245, 245); transform-origin: 250px 351.73px 0px;" id="el5whal02zpk4" class="animable"></ellipse></g><g id="freepik--Shadows--inject-13" style="transform-origin: 250.14px 351.488px 0px;" class="animable"><path d="M349.18,280.74,150.82,395.24a10.74,10.74,0,0,1-10.73,0l-10.47-6a3.86,3.86,0,0,1,0-6.69L328,268a10.74,10.74,0,0,1,10.72,0l10.47,6.05A3.87,3.87,0,0,1,349.18,280.74Z" style="fill: rgb(224, 224, 224); transform-origin: 239.398px 331.621px 0px;" id="elq4azztqz2nr" class="animable"></path><ellipse cx="318.78" cy="384.56" rx="42.65" ry="24.62" style="fill: rgb(224, 224, 224); transform-origin: 318.78px 384.56px 0px;" id="elirmetqniix" class="animable"></ellipse><ellipse cx="401.36" cy="296.74" rx="33.39" ry="19.28" style="fill: rgb(224, 224, 224); transform-origin: 401.36px 296.74px 0px;" id="elfdn3pvx64u" class="animable"></ellipse><ellipse cx="98.92" cy="417.13" rx="33.39" ry="19.28" style="fill: rgb(224, 224, 224); transform-origin: 98.92px 417.13px 0px;" id="elnex4xim7u6" class="animable"></ellipse></g><g id="freepik--Window--inject-13" style="transform-origin: 241.77px 200.805px 0px;" class="animable"><path d="M137.76,162.35,339,46.18c2.31-1.33,4.38-1.23,5.85,0l7,4.82L347,56.86V219.11c0,5.95-3.61,12.85-8.07,15.43l-199.2,115-.37,6.33-7.34-5c-1.46-1.1-2.36-3.27-2.36-6.24V177.77C129.69,171.82,133.3,164.92,137.76,162.35Z" style="fill: rgb(144, 202, 249); transform-origin: 240.756px 200.545px 0px;" id="elxl87ducwe" class="animable"></path><g id="elcgo8sn12ur5"><path d="M137.76,162.35,339,46.18c2.31-1.33,4.38-1.23,5.85,0l7,4.82L347,56.86V219.11c0,5.95-3.61,12.85-8.07,15.43l-199.2,115-.37,6.33-7.34-5c-1.46-1.1-2.36-3.27-2.36-6.24V177.77C129.69,171.82,133.3,164.92,137.76,162.35Z" style="fill: rgb(255, 255, 255); opacity: 0.4; transform-origin: 240.756px 200.545px 0px;" class="animable"></path></g><path d="M136.54,349.31V182.48a20.15,20.15,0,0,1,2.71-9.59l-7.19-4.12a20.08,20.08,0,0,0-2.37,9V344.6c0,3,.9,5.14,2.36,6.24l6.76,4.63C137.41,354.35,136.54,352.22,136.54,349.31Z" style="fill: rgb(144, 202, 249); transform-origin: 134.471px 262.119px 0px;" id="eljh7jisy0iq9" class="animable"></path><g id="elh9hg9t1wbdm"><path d="M136.54,349.31V182.48a20.15,20.15,0,0,1,2.71-9.59l-7.19-4.12a20.08,20.08,0,0,0-2.37,9V344.6c0,3,.9,5.14,2.36,6.24l6.76,4.63C137.41,354.35,136.54,352.22,136.54,349.31Z" style="fill: rgb(255, 255, 255); opacity: 0.2; transform-origin: 134.471px 262.119px 0px;" class="animable"></path></g><g id="el5gi5ydymfja"><path d="M139.28,355.8l.11.07h0Z" style="fill: rgb(144, 202, 249); opacity: 0.3; transform-origin: 139.336px 355.836px 0px;" class="animable"></path></g><path d="M144.61,355.42l201.2-116.17c4.46-2.57,8.07-9.48,8.07-15.42V57c0-5.94-3.61-8.67-8.07-6.1L144.61,167.06c-4.46,2.58-8.07,9.48-8.07,15.42V349.31C136.54,355.26,140.15,358,144.61,355.42Z" style="fill: rgb(144, 202, 249); transform-origin: 245.209px 203.16px 0px;" id="eludt3ahfqj2" class="animable"></path><path d="M144.61,355.42l201.2-116.17c4.46-2.57,8.07-9.48,8.07-15.42V57c0-5.94-3.61-8.67-8.07-6.1L144.61,167.06c-4.46,2.58-8.07,9.48-8.07,15.42V349.31C136.54,355.26,140.15,358,144.61,355.42Z" style="fill: rgb(144, 202, 249); transform-origin: 245.209px 203.16px 0px;" id="elsjwwitq514" class="animable"></path><g id="elnk5w06g4hrp"><path d="M144.61,355.42l201.2-116.17c4.46-2.57,8.07-9.48,8.07-15.42V57c0-5.94-3.61-8.67-8.07-6.1L144.61,167.06c-4.46,2.58-8.07,9.48-8.07,15.42V349.31C136.54,355.26,140.15,358,144.61,355.42Z" style="fill: rgb(255, 255, 255); opacity: 0.7; transform-origin: 245.209px 203.16px 0px;" class="animable"></path></g><path d="M144.61,167.06,345.81,50.9c4.46-2.57,8.07.16,8.07,6.1v8.16L136.54,190.64v-8.16C136.54,176.54,140.15,169.64,144.61,167.06Z" style="fill: rgb(144, 202, 249); transform-origin: 245.209px 120.285px 0px;" id="eluanwgalrhj" class="animable"></path><g id="ela0icqbbg1nd"><path d="M144.61,167.06,345.81,50.9c4.46-2.57,8.07.16,8.07,6.1v8.16L136.54,190.64v-8.16C136.54,176.54,140.15,169.64,144.61,167.06Z" style="fill: rgb(255, 255, 255); opacity: 0.5; transform-origin: 245.209px 120.285px 0px;" class="animable"></path></g><path d="M349,50.72c2.47,0,4.08,2.47,4.08,6.28V223.83c0,5.68-3.45,12.3-7.68,14.74L144.22,354.73a5.63,5.63,0,0,1-2.81.87c-2.48,0-4.08-2.47-4.08-6.29V182.48c0-5.68,3.44-12.29,7.68-14.74L346.21,51.58a5.68,5.68,0,0,1,2.81-.86m0-.79a6.45,6.45,0,0,0-3.21,1L144.61,167.06c-4.46,2.58-8.07,9.48-8.07,15.42V349.31c0,4.43,2,7.07,4.87,7.07a6.52,6.52,0,0,0,3.2-1l201.2-116.17c4.46-2.57,8.07-9.48,8.07-15.42V57c0-4.42-2-7.07-4.86-7.07Z" style="fill: rgb(144, 202, 249); transform-origin: 245.209px 203.154px 0px;" id="elfmx2a6cf6d" class="animable"></path><path d="M154.65,310.51a2.1,2.1,0,0,1-1.05-3.92L214,271.72a2.1,2.1,0,1,1,2.1,3.63l-60.4,34.87A2,2,0,0,1,154.65,310.51Z" style="fill: rgb(250, 250, 250); transform-origin: 184.898px 290.943px 0px;" id="elh8zwxmsx96f" class="animable"></path><path d="M154.65,323.67a2.09,2.09,0,0,1-1.05-3.91l86-49.68a2.1,2.1,0,1,1,2.1,3.64l-86,49.67A2.09,2.09,0,0,1,154.65,323.67Z" style="fill: rgb(250, 250, 250); transform-origin: 197.645px 296.734px 0px;" id="elrfc3xn7ulir" class="animable"></path><path d="M250.19,281.68a2.09,2.09,0,0,1-1.05-3.91l59.51-34.36a2.1,2.1,0,1,1,2.1,3.63L251.23,281.4A2.08,2.08,0,0,1,250.19,281.68Z" style="fill: rgb(250, 250, 250); transform-origin: 279.988px 262.373px 0px;" id="el9m34ecxz8ev" class="animable"></path><path d="M154.65,336.84a2.1,2.1,0,0,1-1.05-3.92l76.77-44.32a2.1,2.1,0,0,1,2.1,3.64L155.7,336.56A2.09,2.09,0,0,1,154.65,336.84Z" style="fill: rgb(250, 250, 250); transform-origin: 193.033px 312.58px 0px;" id="el38o8fkx7htr" class="animable"></path><path d="M154.65,201.19a2.1,2.1,0,0,1-1.05-3.92L214,162.4a2.1,2.1,0,1,1,2.1,3.63l-60.4,34.88A2.09,2.09,0,0,1,154.65,201.19Z" style="fill: rgb(250, 250, 250); transform-origin: 184.898px 181.623px 0px;" id="el9i5ljga9737" class="animable"></path><path d="M154.65,214.36a2.1,2.1,0,0,1-1.05-3.92l86-49.67a2.1,2.1,0,1,1,2.1,3.63l-86,49.67A2,2,0,0,1,154.65,214.36Z" style="fill: rgb(250, 250, 250); transform-origin: 197.697px 187.393px 0px;" id="elq8lnai78omk" class="animable"></path><path d="M250.19,172.37a2.1,2.1,0,0,1-1.05-3.92l59.51-34.36a2.1,2.1,0,1,1,2.1,3.63l-59.52,34.36A2,2,0,0,1,250.19,172.37Z" style="fill: rgb(250, 250, 250); transform-origin: 279.994px 153.059px 0px;" id="elhghurr3dguv" class="animable"></path><path d="M154.65,227.52a2.09,2.09,0,0,1-1.05-3.91l76.77-44.32a2.1,2.1,0,0,1,2.1,3.63L155.7,227.24A2.09,2.09,0,0,1,154.65,227.52Z" style="fill: rgb(250, 250, 250); transform-origin: 192.979px 203.291px 0px;" id="elz9kegn8eq6" class="animable"></path><path d="M153.67,172.14a6.66,6.66,0,0,1-3,5.23c-1.67,1-3,.18-3-1.74a6.66,6.66,0,0,1,3-5.23C152.32,169.43,153.67,170.21,153.67,172.14Z" style="fill: rgb(255, 255, 255); transform-origin: 150.672px 173.893px 0px;" id="el5kp3pyjbs3v" class="animable"></path><path d="M164.32,166a6.66,6.66,0,0,1-3,5.23c-1.67,1-3,.18-3-1.74a6.66,6.66,0,0,1,3-5.23C163,163.28,164.32,164.06,164.32,166Z" style="fill: rgb(255, 255, 255); transform-origin: 161.32px 167.748px 0px;" id="elon3f9mug4xj" class="animable"></path><path d="M175,159.84a6.66,6.66,0,0,1-3,5.23c-1.67,1-3,.18-3-1.74a6.66,6.66,0,0,1,3-5.23C173.62,157.13,175,157.91,175,159.84Z" style="fill: rgb(255, 255, 255); transform-origin: 172px 161.592px 0px;" id="elvuzwff47wcf" class="animable"></path></g><g id="freepik--character-3--inject-13" style="transform-origin: 312.305px 185.846px 0px;" class="animable"><polygon points="196.15 213.25 191.86 211.39 191.86 166.92 196.15 168.78 196.15 213.25" style="fill: rgb(144, 202, 249); transform-origin: 194.005px 190.085px 0px;" id="el2tav5rl8rs2" class="animable"></polygon><g id="el9ykiiqt4ils"><polygon points="196.15 213.25 191.86 211.39 191.86 166.92 196.15 168.78 196.15 213.25" style="opacity: 0.6; transform-origin: 194.005px 190.085px 0px;" class="animable"></polygon></g><polygon points="370.64 67.82 196.15 168.78 191.86 166.92 366.34 65.97 370.64 67.82" style="fill: rgb(144, 202, 249); transform-origin: 281.25px 117.375px 0px;" id="elnej92eh0qj" class="animable"></polygon><g id="elcxisaum1hs9"><polygon points="370.64 67.82 196.15 168.78 191.86 166.92 366.34 65.97 370.64 67.82" style="opacity: 0.4; transform-origin: 281.25px 117.375px 0px;" class="animable"></polygon></g><polygon points="370.64 112.29 196.15 213.25 196.15 168.78 370.64 67.82 370.64 112.29" style="fill: rgb(144, 202, 249); transform-origin: 283.395px 140.535px 0px;" id="el4uh3bf6jj3j" class="animable"></polygon><g id="eluqvnxnv8wr"><polygon points="370.64 112.29 196.15 213.25 196.15 168.78 370.64 67.82 370.64 112.29" style="opacity: 0.3; transform-origin: 283.395px 140.535px 0px;" class="animable"></polygon></g><text transform="matrix(0.87, -0.5, 0, 1, 257.71, 166.69)" style="font-size:31.263328552246094px;fill:#fff;font-family:Montserrat-Black, Montserrat;font-weight:800;letter-spacing:0.20000565408805093em">/</text><path d="M416.83,181.68l3.46,4.13A56,56,0,0,0,422.73,197c2,6.45,1.66,9.18,1.66,9.18l7.34-.57-2.93-23a10.84,10.84,0,0,0-1.55-4.33l-1.78-2.87Z" style="fill: rgb(148, 89, 89); transform-origin: 424.279px 190.795px 0px;" id="el4whbsv5ueb2" class="animable"></path><path d="M420.85,298.17s-4.61,3.59-4.17,5.71,7.63,3.13,11.12-1c1.55-1.83,2.65-5.56,2.79-10.11.07-2.27,2.93-5.63,0-8s-4.1-2.93-4.83-2.63S420.85,298.17,420.85,298.17Z" style="fill: rgb(55, 71, 79); transform-origin: 424.277px 293.895px 0px;" id="el5orized0msf" class="animable"></path><path d="M417.41,280.82l2.71,5.78s.88,8.35.73,11.57c0,0,4.18,2.56,5.42-2.29a32,32,0,0,0,.66-7,15.72,15.72,0,0,1-.57-5,4.1,4.1,0,0,0-.09-1.56l-1.24-5.1Z" style="fill: rgb(148, 89, 89); transform-origin: 422.172px 288.033px 0px;" id="el8b8zpdmlcyj" class="animable"></path><path d="M379.84,290.36s-1.67,1.12-2.84,1.95-6.07,4.9.78,6.15a11.32,11.32,0,0,0,9.47-3.07c3.37-3.32,5.81-2.29,7-3.61s.32-8.69-1.35-8.35Z" style="fill: rgb(55, 71, 79); transform-origin: 384.504px 290.996px 0px;" id="el7645i3in0ju" class="animable"></path><path d="M385.54,277.38l.53,4.77a2.32,2.32,0,0,1-.19,1.19c-.49,1.05-1.91,3.34-6,7,0,0-.07,3.69,5.11,1.91a22.35,22.35,0,0,0,4-2.41,4.89,4.89,0,0,0,1.46-1.64,11.77,11.77,0,0,1,2.4-3.15l.54-7.69Z" style="fill: rgb(148, 89, 89); transform-origin: 386.635px 285.047px 0px;" id="el2pagqdm92m6" class="animable"></path><path d="M381,196.62s-1.44,7.15-1.14,20.72c.19,9.12.38,15.94.47,19.44a47.37,47.37,0,0,0,.43,5.19l4.76,35.41a8.35,8.35,0,0,0,7.81,0s.68-7.81,1.46-11.91c.7-3.63,1.62-14.24-.22-19.8a10.82,10.82,0,0,1-.38-5L399.6,205Z" style="fill: rgb(69, 90, 100); transform-origin: 389.709px 237.484px 0px;" id="elv4d345v3uv" class="animable"></path><path d="M384.7,204.82a12.46,12.46,0,0,0,7,7.15l3.95,19.26,4-26.19Z" style="fill: rgb(55, 71, 79); transform-origin: 392.174px 218.025px 0px;" id="el9jrrx16yvdm" class="animable"></path><path d="M382.61,196.25s-1,8.69,6.25,12.08A18.48,18.48,0,0,0,393.4,210s5.93,35.36,7,38,17,32.8,17,32.8,6.3,1.32,7.62-3.59c0,0-1.39-6.44-3.15-13.47-1.48-5.92-3.22-12.62-6.27-15.9a6.44,6.44,0,0,1-1.79-4.54c.13-5.75.39-17.82.44-21.07.08-4.32,1.69-18.09-1.09-23.65l-8.58-7.84Z" style="fill: rgb(69, 90, 100); transform-origin: 403.791px 235.85px 0px;" id="elnq9pjdo1xl" class="animable"></path><path d="M376.66,147.74l-6.46-3.84s-4.11-5.19-7.44-9.81-4.73-7-4.73-7a10.82,10.82,0,0,0,1.76-5.34c0-2.78-.15-4.1.37-5.13s0-2.12-1.39-1.68-2.42,3.43-2,5.38l-7.76,4.5s1.29,3.45,3.07,5.06c0,0,7.11,17.13,9.89,19.91s7.64,6.55,7.64,6.55Z" style="fill: rgb(148, 89, 89); transform-origin: 362.836px 135.59px 0px;" id="el06kf150ya5s8" class="animable"></path><path d="M389.93,155.62l-13.27-7.88s-6.14.43-7,8.57l11.61,8.7Z" style="fill: rgb(144, 202, 249); transform-origin: 379.795px 156.375px 0px;" id="el7ujg64187et" class="animable"></path><g id="elmaah9xfu8o"><path d="M389.93,155.62l-13.27-7.88s-6.14.43-7,8.57l11.61,8.7Z" style="opacity: 0.2; transform-origin: 379.795px 156.375px 0px;" class="animable"></path></g><path d="M392.5,155.62l8.86.44,5.79.29,1,13.69s-1.53,7.91-2.7,10.69,6.51,14.21,7.76,17.87c0,0-4.91.66-7.4-5A14.54,14.54,0,0,1,392,202.55c-7.06,0-11-5.93-11-5.93l1.61-10a34,34,0,0,1-1.61-9.45s-4-1.47-3.09-7.39,12-14.13,12-14.13Z" style="fill: rgb(144, 202, 249); transform-origin: 395.494px 179.088px 0px;" id="elalw781yqysc" class="animable"></path><path d="M410.6,133.51s5.07-4.19,9.45.58c6.3,6.87-7.32,20.36,4.76,20.65,0,0-1.39,1.61-6.08,1.61s-8.71-4.85-7.91-13.77Z" style="fill: rgb(38, 50, 56); transform-origin: 417.705px 144.08px 0px;" id="ele4yytoyjl89" class="animable"></path><path d="M409,133.29s1.62-1,2.24-.28,1.44,6.31-.41,9.57c-.88,1.54-2.63-.58-2.63-.58Z" style="fill: rgb(144, 202, 249); transform-origin: 410.082px 137.945px 0px;" id="el373kgoe3pku" class="animable"></path><path d="M381.83,134.09s.07,5.79-3.66,4.18a3.94,3.94,0,0,0,3.89,2.47c2.05,0,3.23-2,3.23-3.57Z" style="fill: rgb(38, 50, 56); transform-origin: 381.73px 137.418px 0px;" id="elz0qzqxai71p" class="animable"></path><g id="elq7zynmhd3l"><circle cx="395.65" cy="131.88" r="11.3" style="fill: rgb(38, 50, 56); transform-origin: 395.65px 131.88px 0px; transform: rotate(-30.63deg);" class="animable"></circle></g><path d="M410.16,137.17c0,6.24-5.57,14.17-11.81,14.17a11.29,11.29,0,0,1-11.3-11.29c0-6.24,5.06-13.35,11.3-13.35S410.16,128.82,410.16,137.17Z" style="fill: rgb(38, 50, 56); transform-origin: 398.605px 139.02px 0px;" id="elvsq9qg7vv9l" class="animable"></path><path d="M392.89,130.54a6.63,6.63,0,1,1-6.63-6.62A6.63,6.63,0,0,1,392.89,130.54Z" style="fill: rgb(38, 50, 56); transform-origin: 386.26px 130.551px 0px;" id="elh5qkg1w0n57" class="animable"></path><path d="M392.5,149.54v6.08s-5.68,5.71-.15,6.21,9-5.77,9-5.77V144.47Z" style="fill: rgb(148, 89, 89); transform-origin: 395.641px 153.162px 0px;" id="elbu7vbip6vao" class="animable"></path><path d="M401.26,142.64V143c-2,7.79-7.11,9.49-8.76,9.88l-.06-12.06,8.57,0Z" style="fill: rgb(112, 56, 56); transform-origin: 396.852px 146.85px 0px;" id="el9eozwqzuj9" class="animable"></path><path d="M394.1,125.29a10.89,10.89,0,0,0-10.18,11.29c-.1,8.63,1.22,15.21,5.69,15.48s14.46-3.76,14.93-15S397.29,125,394.1,125.29Z" style="fill: rgb(148, 89, 89); transform-origin: 394.236px 138.658px 0px;" id="elg3p8u0pqlq5" class="animable"></path><polygon points="389.96 140.05 390.04 145.11 387.06 144.25 389.96 140.05" style="fill: rgb(112, 56, 56); transform-origin: 388.55px 142.58px 0px;" id="elcgvsx92b0lc" class="animable"></polygon><path d="M394.41,139.91a1,1,0,1,1-1.05-1A1,1,0,0,1,394.41,139.91Z" style="fill: rgb(38, 50, 56); transform-origin: 393.41px 139.91px 0px;" id="el8w1dab0ys36" class="animable"></path><path d="M387.61,139.29a1,1,0,1,1-1-1A1,1,0,0,1,387.61,139.29Z" style="fill: rgb(38, 50, 56); transform-origin: 386.609px 139.289px 0px;" id="els9gw1rsnjzf" class="animable"></path><path d="M385.29,137.17l2-1.23s-.78-.79-1.55-.3A1.42,1.42,0,0,0,385.29,137.17Z" style="fill: rgb(144, 202, 249); transform-origin: 386.256px 136.326px 0px;" id="el7lbddjusok" class="animable"></path><path d="M389.37,146.88a32.2,32.2,0,0,0,3.05-1.68s.64,1.66-.71,2.34A1.92,1.92,0,0,1,389.37,146.88Z" style="fill: rgb(112, 56, 56); transform-origin: 390.971px 146.449px 0px;" id="eln056qdnelmj" class="animable"></path><path d="M385.29,137.17l2-1.23s-.78-.79-1.55-.3A1.42,1.42,0,0,0,385.29,137.17Z" style="fill: rgb(38, 50, 56); transform-origin: 386.256px 136.326px 0px;" id="el48q614xi73e" class="animable"></path><path d="M399.49,139.44s-.2,3.63,1.89,3.63h4.1v-6.92c0-7.76-5.89-15.87-18.42-9.46C387.06,126.69,386.45,137.05,399.49,139.44Z" style="fill: rgb(38, 50, 56); transform-origin: 396.268px 133.723px 0px;" id="elem9xp3z05h" class="animable"></path><path d="M401.07,143.23a5.2,5.2,0,0,1,.45-2.3,2.44,2.44,0,0,1,2.13-1.63c2.44,0,2.74,2.31,2.7,3.15a5,5,0,0,1-5.22,4.6Z" style="fill: rgb(148, 89, 89); transform-origin: 403.711px 143.178px 0px;" id="elh5aaxxc2q4g" class="animable"></path><path d="M406.35,156.31s-5.76,5.74,1.59,14.6,8.89,10.77,8.89,10.77,7.54.74,8.64-6.22c0,0-8.86-12.45-11.28-15.59S409.57,156.47,406.35,156.31Z" style="fill: rgb(144, 202, 249); transform-origin: 414.836px 169.006px 0px;" id="ely4xq4j1dotf" class="animable"></path><g id="elnosfuigdqw"><path d="M406.35,156.31s-5.76,5.74,1.59,14.6,8.89,10.77,8.89,10.77,7.54.74,8.64-6.22c0,0-8.86-12.45-11.28-15.59S409.57,156.47,406.35,156.31Z" style="opacity: 0.2; transform-origin: 414.836px 169.006px 0px;" class="animable"></path></g><g id="elxyjs5wotcm"><path d="M389.59,177.88s8.82,2.46,11.77-5.93C401.36,172,399.84,182.42,389.59,177.88Z" style="opacity: 0.3; transform-origin: 395.475px 175.486px 0px;" class="animable"></path></g><path d="M424.39,206.21s-1.4.82-1.73,3.75c-.1.84-1.64,2.71-1.41,3.18s1.77,1.11,3.43-1.64a10.76,10.76,0,0,1,.06,4.24c-.45,2.17-1.23,4.95,1.6,4.34s7-2.85,6.34-7.07c-.61-4.07-.95-7.37-.95-7.37Z" style="fill: rgb(148, 89, 89); transform-origin: 426.988px 212.902px 0px;" id="elsecykdnd17p" class="animable"></path></g><g id="freepik--character-2--inject-13" style="transform-origin: 303.788px 274.611px 0px;" class="animable"><polygon points="257.81 260.82 253.51 258.97 253.51 214.5 257.81 216.35 257.81 260.82" style="fill: rgb(144, 202, 249); transform-origin: 255.66px 237.66px 0px;" id="elhy8dlx2bh5p" class="animable"></polygon><g id="elxlq9ig2axk"><polygon points="257.81 260.82 253.51 258.97 253.51 214.5 257.81 216.35 257.81 260.82" style="opacity: 0.6; transform-origin: 255.66px 237.66px 0px;" class="animable"></polygon></g><polygon points="358.13 158.31 257.81 216.35 253.51 214.5 353.83 156.46 358.13 158.31" style="fill: rgb(144, 202, 249); transform-origin: 305.82px 186.405px 0px;" id="elcl4sfwtk6q" class="animable"></polygon><g id="ell421474v3n"><polygon points="358.13 158.31 257.81 216.35 253.51 214.5 353.83 156.46 358.13 158.31" style="opacity: 0.4; transform-origin: 305.82px 186.405px 0px;" class="animable"></polygon></g><polygon points="358.13 202.78 257.81 260.82 257.81 216.35 358.13 158.31 358.13 202.78" style="fill: rgb(144, 202, 249); transform-origin: 307.97px 209.565px 0px;" id="els4pacbwdfa" class="animable"></polygon><g id="el13x64a38tm7i"><polygon points="358.13 202.78 257.81 260.82 257.81 216.35 358.13 158.31 358.13 202.78" style="opacity: 0.3; transform-origin: 307.97px 209.565px 0px;" class="animable"></polygon></g><text transform="matrix(0.87, -0.5, 0, 1, 283.73, 232.72)" style="font-size:29.17784881591797px;fill:#fff;font-family:Montserrat-Black, Montserrat;font-weight:800;letter-spacing:0.2000098136532195em">C</text><text transform="matrix(0.5, -0.29, 0, 0.58, 306.17, 210.05)" style="font-size:29.17784881591797px;fill:#fff;font-family:Montserrat-Black, Montserrat;font-weight:800;letter-spacing:0.19995195357807474em">++</text><path d="M345.13,383.1s4.08-2.28,4.59-4.82-4-8.39-4-8.39S342.41,371.78,345.13,383.1Z" style="fill: rgb(144, 202, 249); transform-origin: 346.906px 376.496px 0px;" id="elyagxenqpro" class="animable"></path><g id="el4anwtw6of2w"><path d="M345.13,383.1s4.08-2.28,4.59-4.82-4-8.39-4-8.39S342.41,371.78,345.13,383.1Z" style="opacity: 0.2; transform-origin: 346.906px 376.496px 0px;" class="animable"></path></g><polygon points="295.18 390.97 301.13 387.46 301.91 381.5 299.86 381.02 295.18 390.97" style="fill: rgb(144, 202, 249); transform-origin: 298.545px 385.995px 0px;" id="elxf6px564tzs" class="animable"></polygon><g id="el14xw282l5y9"><polygon points="295.18 390.97 301.13 387.46 301.91 381.5 299.86 381.02 295.18 390.97" style="opacity: 0.3; transform-origin: 298.545px 385.995px 0px;" class="animable"></polygon></g><path d="M330.42,356.71l5.56,8.88,3.71,12.3s6.85-.85,2.54-16.64L339,351.73Z" style="fill: rgb(255, 168, 167); transform-origin: 337.037px 364.811px 0px;" id="elb2otngnvwyj" class="animable"></path><path d="M294,360l1.17,14.15L291.08,385s2.05,5.07,8.49-5.66c3.42-5.7,3.53-6.83,3.53-6.83l1.35-12.5Z" style="fill: rgb(255, 168, 167); transform-origin: 297.764px 373.098px 0px;" id="elaoasft7unzt" class="animable"></path><path d="M299.31,222.16l-2.09,4.14a.47.47,0,0,0,.27.66l2.48.82Z" style="fill: rgb(242, 143, 143); transform-origin: 298.568px 224.971px 0px;" id="elm9trxe7fhm" class="animable"></path><path d="M302.21,215.22S299,216.93,299,226.73c0,5.39.37,8.83,3.17,8.62s10.86-1.27,10.86-1.27V215.22Z" style="fill: rgb(255, 168, 167); transform-origin: 306.016px 225.289px 0px;" id="elujb5jorjyy" class="animable"></path><path d="M302.21,235.35c1-.08,2.62-.26,4.32-.46v-1a22,22,0,0,1-4.79,1.45A2.43,2.43,0,0,0,302.21,235.35Z" style="fill: rgb(242, 143, 143); transform-origin: 304.135px 234.625px 0px;" id="elm2m344jby2g" class="animable"></path><polygon points="306.05 233.47 306.05 239.63 314.47 239.63 314.47 230.98 306.05 233.47" style="fill: rgb(255, 168, 167); transform-origin: 310.26px 235.305px 0px;" id="elj1nv501904o" class="animable"></polygon><path d="M320.46,255.08l5.47,11.23-4.1,5.37,2.83,9.59,8.79-10.37a6.54,6.54,0,0,0,1.11-6.61c-2.42-6.22-7.23-18.46-8.53-20.63-1.76-2.93-3.86-4.49-7-4.39S320.46,255.08,320.46,255.08Z" style="fill: rgb(255, 168, 167); transform-origin: 326.469px 260.268px 0px;" id="elyfb74ke5ag" class="animable"></path><path d="M323.1,273.53c1.27,3.81,4,9.17,3.92,27.18-.08,12.59,0,19.68.12,22.8a4.51,4.51,0,0,0,1.22,3c1.34,1.38,3.62,4.35,5.77,10A139.29,139.29,0,0,1,339,351.73s-1.56,5.08-8.59,5l-17.58-28.25a9.44,9.44,0,0,1-1.33-3.73l-4.62-35.09V275.29Z" style="fill: rgb(144, 202, 249); transform-origin: 322.939px 315.131px 0px;" id="eluwenxkh7q6l" class="animable"></path><g id="elx5q7e9skrvi"><path d="M323.1,273.53c1.27,3.81,4,9.17,3.92,27.18-.08,12.59,0,19.68.12,22.8a4.51,4.51,0,0,0,1.22,3c1.34,1.38,3.62,4.35,5.77,10A139.29,139.29,0,0,1,339,351.73s-1.56,5.08-8.59,5l-17.58-28.25a9.44,9.44,0,0,1-1.33-3.73l-4.62-35.09V275.29Z" style="opacity: 0.6; transform-origin: 322.939px 315.131px 0px;" class="animable"></path></g><path d="M310.6,317.78l4.88-17.5s6.86-7,4.42-19l-10.37,13.06.52,19.92Z" style="fill: rgb(144, 202, 249); transform-origin: 314.979px 299.531px 0px;" id="ellpex8s4tna" class="animable"></path><g id="el3m7k7ef3zno"><path d="M310.6,317.78l4.88-17.5s6.86-7,4.42-19l-10.37,13.06.52,19.92Z" style="opacity: 0.7; transform-origin: 314.979px 299.531px 0px;" class="animable"></path></g><path d="M294.49,274.51c-.29,5.66-3.36,40.9-2.92,51.15S294,360,294,360s6.63,2.74,10.44,0c0,0,1.61-9.5,2.66-17a29.83,29.83,0,0,0-.39-11.68,8.54,8.54,0,0,1,0-4.29l7.48-28.71s6.46-4.53,6.46-17.06v-9.4Z" style="fill: rgb(144, 202, 249); transform-origin: 306.088px 316.539px 0px;" id="ellxfmgi1w0ks" class="animable"></path><g id="elfukc1yodlxv"><path d="M294.49,274.51c-.29,5.66-3.36,40.9-2.92,51.15S294,360,294,360s6.63,2.74,10.44,0c0,0,1.61-9.5,2.66-17a29.83,29.83,0,0,0-.39-11.68,8.54,8.54,0,0,1,0-4.29l7.48-28.71s6.46-4.53,6.46-17.06v-9.4Z" style="opacity: 0.6; transform-origin: 306.088px 316.539px 0px;" class="animable"></path></g><path d="M312.46,235.3,299,240.24s-6.3,5.47-6.3,15.92c0,2.93,2.83,5.56,2.83,5.56s-1,9.18-1.08,12.79c0,0,6.88,4.83,19.71,2.93a22.88,22.88,0,0,0,8.9-3.91s-2-8.1-2.25-8.88,2.74-10.25,2.74-17.77Z" style="fill: rgb(69, 90, 100); transform-origin: 308.125px 256.592px 0px;" id="elhd37ow9pg98" class="animable"></path><path d="M300.57,217.41s.54,4.73,3.57,6c0,0-2.4,3.29,1.16,4.73v-2.54l1.49,2.91s-4.19,17,3.08,17a5.3,5.3,0,0,0,3.47-1.22s1.12,4.44,7.85,4.44,8-6.59,8-6.59-4.49,1.36-4.49-3.32-.34-19.72-.59-22a11.27,11.27,0,0,0-10-9.13c-5.25-.63-12.06-.59-16,4.83s1.68,6.94,1.68,6.94S299.92,219.27,300.57,217.41Z" style="fill: rgb(38, 50, 56); transform-origin: 312.951px 228.074px 0px;" id="el9aj6smskgg" class="animable"></path><path d="M305.3,225.62s-.22-4.14,3-3.82c3.68.36,2.51,7-2,7Z" style="fill: rgb(255, 168, 167); transform-origin: 307.891px 225.291px 0px;" id="elvdq28uk63ce" class="animable"></path><path d="M325.81,213a9.91,9.91,0,0,0-3.37-3.23,3.67,3.67,0,0,0-4.9,1.83,5.95,5.95,0,0,0,3.75,8.32,6.49,6.49,0,0,0,1,.19,3.9,3.9,0,0,0,4.15-3,5.77,5.77,0,0,0,.21-1.45A4.49,4.49,0,0,0,325.81,213Z" style="fill: rgb(144, 202, 249); transform-origin: 321.797px 214.777px 0px;" id="ellp678qbsu9" class="animable"></path><path d="M328.56,214a5.28,5.28,0,1,1-5.28-5.29A5.28,5.28,0,0,1,328.56,214Z" style="fill: rgb(38, 50, 56); transform-origin: 323.279px 213.99px 0px;" id="el11je41ydiw4l" class="animable"></path><path d="M299,240.24s4.53.69,4.53,6.74-11.13,8.79-16.4,10.74c-3,1.13-7.07,2.71-9.92,3.85a6.4,6.4,0,0,1-6.59-1.14,105.52,105.52,0,0,1-15-16.18s-6.36-2.25-6.17-8.5,4-8,4-8v2.08a4.44,4.44,0,0,0,1.73,3.52l1.27,1a1.13,1.13,0,0,0,1.75-.5c.44-1.2,1.21-2.76,2.36-3.28,1.95-.88,1.27,2.91.78,4.72a10.58,10.58,0,0,0-.39,3.19l14.25,12.59S290.84,242.84,299,240.24Z" style="fill: rgb(255, 168, 167); transform-origin: 276.488px 244.887px 0px;" id="elbphu9djrl3k" class="animable"></path><path d="M303.1,372.53a6.62,6.62,0,0,0-4.8,3.51c-1.56,3.12-4.49,11.91-7.22,9l.93-2.45s-10.93,2.39-8.32,5.25,10.8,4.13,11.49,3.15,4.39-8,4.39-8l2.05,9.37a1.64,1.64,0,0,0,2.15,0S306.44,374.38,303.1,372.53Z" style="fill: rgb(144, 202, 249); transform-origin: 294.035px 382.646px 0px;" id="elxx0uh7t0eg" class="animable"></path><path d="M339.69,377.89a4.06,4.06,0,0,0,2.15-4.39c-.39-3.32-2.92-9.93.39-12.25,1.47-1,4.73,3.46,7.49,8.83s3.54,6.93,3.54,6.93-.3,1.44-1.56,1.37l-6.05-6.25a12.4,12.4,0,0,0,.19,5.76c.88,2.93,1,4.63-2.19,6.05s-11.92,3.36-7.25-2.53A16.91,16.91,0,0,1,339.69,377.89Z" style="fill: rgb(144, 202, 249); transform-origin: 344.158px 373.266px 0px;" id="elv9qlvk631v" class="animable"></path></g><g id="freepik--character-1--inject-13" style="transform-origin: 153.983px 314.877px 0px;" class="animable"><path d="M105.27,394.07l.78,8.07s.87,1.66,4.88,1.66,3.12-3.42,3.12-3.42l.39-6.31Z" style="fill: rgb(255, 168, 167); transform-origin: 109.855px 398.936px 0px;" id="elavcnikj7b6v" class="animable"></path><path d="M117.3,312.38c0,4.19-.39,45.09-.42,47.83a2.81,2.81,0,0,1,0,.29c-.16,2.28-2.14,30.32-2.43,33.57,0,0-4.78,3.64-9.17,0,0,0-1.18-9.89-1.57-12.82s-1.86-16,0-20.31l-4.78-24.79V316.24Z" style="fill: rgb(55, 71, 79); transform-origin: 108.115px 354.033px 0px;" id="el7049uozkstl" class="animable"></path><path d="M111.88,318.66s-1,6.26-8.18,9.68l-3.15,16.25L98.92,337V319.26Z" style="fill: rgb(38, 50, 56); transform-origin: 105.4px 331.625px 0px;" id="el6tx95bxw3ob" class="animable"></path><path d="M74.61,400.38l-.78,6s2.09,5.45,8.47,2.82l1.17-6.24Z" style="fill: rgb(255, 168, 167); transform-origin: 78.6484px 405.146px 0px;" id="elix7faeknsci" class="animable"></path><path d="M83.47,313.11c-.44,4.68-1.73,16.59-2.22,32s-.49,15.32-.49,15.32a42.92,42.92,0,0,0-3.55,11.91c-.61,5.78-2.6,28-2.6,28a9,9,0,0,0,8.86,2.54l11.78-37a21.87,21.87,0,0,0,.73-3.08l5.77-36.37s10.06-1.36,12.3-14.35Z" style="fill: rgb(55, 71, 79); transform-origin: 94.3301px 357.631px 0px;" id="el6zc3q46fas" class="animable"></path><polygon points="120.52 284.33 131.86 293.41 131.86 280.23 127.84 276.13 120.52 284.33" style="fill: rgb(242, 143, 143); transform-origin: 126.19px 284.77px 0px;" id="elx5j59pgqook" class="animable"></polygon><path d="M109.46,263.76a10.84,10.84,0,0,1,7.48,2.27c3.51,2.78,10.9,10.1,10.9,10.1a9.88,9.88,0,0,1-7.32,8.2l-7.25-5.19Z" style="fill: rgb(144, 202, 249); transform-origin: 118.65px 274.029px 0px;" id="elfylhbnaet7" class="animable"></path><g id="ela1bm482risg"><path d="M109.46,263.76a10.84,10.84,0,0,1,7.48,2.27c3.51,2.78,10.9,10.1,10.9,10.1a9.88,9.88,0,0,1-7.32,8.2l-7.25-5.19Z" style="fill: rgb(255, 255, 255); opacity: 0.2; transform-origin: 118.65px 274.029px 0px;" class="animable"></path></g><path d="M94.74,263.83s-7.46.75-10.83,1.48l-1.24,13.46s2.62,15,2.62,17.11-1.82,17.23-1.82,17.23,5.15,3.37,20.14,3.37a27.86,27.86,0,0,0,13.69-4.1V282.47c0-5.82-2.27-15-7.84-18.71h-4.58Z" style="fill: rgb(144, 202, 249); transform-origin: 99.9863px 290.121px 0px;" id="elx6ligzv79ir" class="animable"></path><g id="elprbmv2onp6"><path d="M94.74,263.83s-7.46.75-10.83,1.48l-1.24,13.46s2.62,15,2.62,17.11-1.82,17.23-1.82,17.23,5.15,3.37,20.14,3.37a27.86,27.86,0,0,0,13.69-4.1V282.47c0-5.82-2.27-15-7.84-18.71h-4.58Z" style="opacity: 0.2; transform-origin: 99.9863px 290.121px 0px;" class="animable"></path></g><polygon points="136.15 304.91 131.86 303.06 131.86 258.59 136.15 260.44 136.15 304.91" style="fill: rgb(144, 202, 249); transform-origin: 134.005px 281.75px 0px;" id="el93ox55h2t8u" class="animable"></polygon><g id="elohnjsgvr2rq"><polygon points="136.15 304.91 131.86 303.06 131.86 258.59 136.15 260.44 136.15 304.91" style="opacity: 0.6; transform-origin: 134.005px 281.75px 0px;" class="animable"></polygon></g><polygon points="236.47 202.4 136.15 260.44 131.86 258.59 232.17 200.55 236.47 202.4" style="fill: rgb(144, 202, 249); transform-origin: 184.165px 230.495px 0px;" id="elot6b7cx46oj" class="animable"></polygon><g id="elpegbce76bl9"><polygon points="236.47 202.4 136.15 260.44 131.86 258.59 232.17 200.55 236.47 202.4" style="opacity: 0.4; transform-origin: 184.165px 230.495px 0px;" class="animable"></polygon></g><polygon points="236.47 246.87 136.15 304.91 136.15 260.44 236.47 202.4 236.47 246.87" style="fill: rgb(144, 202, 249); transform-origin: 186.31px 253.655px 0px;" id="eldxr8u95pdyv" class="animable"></polygon><g id="elhdjhuinzz55"><polygon points="236.47 246.87 136.15 304.91 136.15 260.44 236.47 202.4 236.47 246.87" style="opacity: 0.3; transform-origin: 186.31px 253.655px 0px;" class="animable"></polygon></g><text transform="matrix(0.87, -0.5, 0, 1, 152.89, 282.47)" style="font-size:29.17784881591797px;fill:#fff;font-family:Montserrat-Black, Montserrat;font-weight:800;letter-spacing:0.2000098136532195em">CSS</text><path d="M114,235.46s5.83,5.12.76,16.53l-5.93-15.42Z" style="fill: rgb(38, 50, 56); transform-origin: 112.83px 243.725px 0px;" id="el09tkaium7t3u" class="animable"></path><path d="M94.74,263.83s2,5.35,7.57,5.35,2.57-5.42,2.57-5.42Z" style="fill: rgb(255, 168, 167); transform-origin: 100.213px 266.471px 0px;" id="el1oezt2vmpr7" class="animable"></path><polygon points="94.74 263.83 104.88 263.76 104.88 248.25 94.74 248.25 94.74 263.83" style="fill: rgb(255, 168, 167); transform-origin: 99.81px 256.04px 0px;" id="el86m20zmcjh" class="animable"></polygon><path d="M104.88,263.14c-3.74-1.45-8.49-3.85-8.49-6.14l-1.23-7.71h9.72Z" style="fill: rgb(242, 143, 143); transform-origin: 100.02px 256.215px 0px;" id="elrnlyffqibrd" class="animable"></path><path d="M102.55,232.3c3.58,0,11.18,2,12.06,11.36s-.49,17.32-4.8,17.32c-8.46,0-16.58-1.08-16.65-14.92C93.1,233.85,99.06,232.3,102.55,232.3Z" style="fill: rgb(255, 168, 167); transform-origin: 104.012px 246.641px 0px;" id="elmztu2ol1q0l" class="animable"></path><path d="M94.75,254.26,96.12,250a.71.71,0,0,0,1.17-.54v-7.55s3.52-1,3.15-3.95c0,0,1.8,1.61,8.7,1.61s8.58-5.85,7.89-9.11c0,0-1.28,1.32-4.93,1.32s-18.84-4.58-19.23,4.6c0,0-1.29-1.88-3.36,0L92.18,238s-3.16-.1-2.67,4.53c.39,3.66,1.91,10.59,2.54,13.36a3.13,3.13,0,0,0,1.29,1.88l1.41.95Z" style="fill: rgb(38, 50, 56); transform-origin: 103.316px 244.59px 0px;" id="el2ki1ygpqtzj" class="animable"></path><polygon points="107.93 246.47 107.93 251.99 111.16 250.99 107.93 246.47" style="fill: rgb(242, 143, 143); transform-origin: 109.545px 249.23px 0px;" id="el8y0y43kpijl" class="animable"></polygon><path d="M102.19,247.42a1.13,1.13,0,1,0,1.12-1.12A1.12,1.12,0,0,0,102.19,247.42Z" style="fill: rgb(38, 50, 56); transform-origin: 103.32px 247.43px 0px;" id="elyqal2uklsm" class="animable"></path><path d="M110.6,246.64a1.13,1.13,0,1,0,1.13-1.13A1.13,1.13,0,0,0,110.6,246.64Z" style="fill: rgb(38, 50, 56); transform-origin: 111.73px 246.641px 0px;" id="eltdhap7ivic" class="animable"></path><path d="M113.1,244.29l-2.2-1.3s.84-.88,1.68-.35A1.53,1.53,0,0,1,113.1,244.29Z" style="fill: rgb(38, 50, 56); transform-origin: 112.033px 243.379px 0px;" id="elaq28hsnet1a" class="animable"></path><path d="M101,245.11l2.19-1.31s-.84-.88-1.68-.35A1.54,1.54,0,0,0,101,245.11Z" style="fill: rgb(38, 50, 56); transform-origin: 102.061px 244.195px 0px;" id="el8jd067brofn" class="animable"></path><path d="M109.45,254.22a4.75,4.75,0,0,1-3-.81s-.21,1.6,1.13,1.9A1.73,1.73,0,0,0,109.45,254.22Z" style="fill: rgb(242, 143, 143); transform-origin: 107.943px 254.369px 0px;" id="el2d2dh19vlsr" class="animable"></path><path d="M95.58,248.45c1.27,2.21.94,4.89-.83,5.81-1.15.59-4.52-.68-5.79-2.89s-.56-4.1,1.17-5.1S94.3,246.24,95.58,248.45Z" style="fill: rgb(255, 168, 167); transform-origin: 92.3301px 250.141px 0px;" id="elct9q60asra8" class="animable"></path><polygon points="96.22 250.09 92.33 245.87 95.13 244.19 96.22 250.09" style="fill: rgb(37, 50, 57); transform-origin: 94.275px 247.14px 0px;" id="elvwsy3uufbg" class="animable"></polygon><path d="M102,281.41l5.35,5.93s4.37-.62,9.44-.88a87.93,87.93,0,0,0,11.94-2.09s1-4.28,3.14-6v3.35s2.87,1,4.29-.42c2.45-2.41,4.64-4.63,4.64.42,0,7.05-3,9.91-11.1,9.76,0,0-20.45,8.57-25.35,7.61-3-.57-11.24-8.34-11.24-8.34Z" style="fill: rgb(255, 168, 167); transform-origin: 116.955px 288.768px 0px;" id="el40l84463u7v" class="animable"></path><path d="M80,267.26c3.44-3.5,7.37-1.87,10.82,1.58S102,281.41,102,281.41s-.78,7.11-8.89,9.37c0,0-10.94-11.39-12.34-12.94C78.23,275,76.74,270.6,80,267.26Z" style="fill: rgb(144, 202, 249); transform-origin: 90.0645px 278.047px 0px;" id="el4g3gm8oajmh" class="animable"></path><g id="el70w7j83am56"><path d="M80,267.26c3.44-3.5,7.37-1.87,10.82,1.58S102,281.41,102,281.41s-.78,7.11-8.89,9.37c0,0-10.94-11.39-12.34-12.94C78.23,275,76.74,270.6,80,267.26Z" style="fill: rgb(255, 255, 255); opacity: 0.2; transform-origin: 90.0645px 278.047px 0px;" class="animable"></path></g><path d="M152.56,295.44a8.34,8.34,0,0,1,3.08-5.85c4.61-3.52,4.42,0,4.53,1.45s-4.27,6.6-9.07,5.24Z" style="fill: rgb(255, 168, 167); transform-origin: 155.639px 292.291px 0px;" id="el1sghyvawq5l" class="animable"></path><path d="M73.83,406.34a5.22,5.22,0,0,0,1,1.48.72.72,0,0,0,1.18-.47,1.89,1.89,0,0,1,1-1.6c.69-.29,6.2-.39,6.25.73A12,12,0,0,1,83,409s.89,7.58,2.58,10.58,4.45,7.85-1.36,9.27-10.2-1.66-10.4-5.76-.1-7-.49-7.71-2.44-1.08-1.66-4.83.9-6,2.4-6.12Z" style="fill: rgb(69, 90, 100); transform-origin: 79.6152px 416.816px 0px;" id="el9za890gp9ka" class="animable"></path><path d="M77.79,413.3a.5.5,0,0,1-.43-.22.53.53,0,0,1,.12-.73,6.5,6.5,0,0,1,6.2-.39.52.52,0,1,1-.42,1,5.51,5.51,0,0,0-5.18.29A.52.52,0,0,1,77.79,413.3Z" style="fill: rgb(235, 235, 235); transform-origin: 80.6387px 412.33px 0px;" id="elxiuyzf4geok" class="animable"></path><path d="M78.65,417a.54.54,0,0,1-.43-.22.53.53,0,0,1,.13-.73,6.49,6.49,0,0,1,6.2-.4.54.54,0,0,1,.27.7.53.53,0,0,1-.7.26,5.47,5.47,0,0,0-5.17.29A.47.47,0,0,1,78.65,417Z" style="fill: rgb(235, 235, 235); transform-origin: 81.4961px 416.023px 0px;" id="el0rbqsbv8m6xd" class="animable"></path><path d="M80,420.65a.51.51,0,0,1-.43-.22.53.53,0,0,1,.13-.73,6.5,6.5,0,0,1,6.2-.39.52.52,0,0,1,.27.69.54.54,0,0,1-.69.27,5.52,5.52,0,0,0-5.18.29A.53.53,0,0,1,80,420.65Z" style="fill: rgb(235, 235, 235); transform-origin: 82.8457px 419.676px 0px;" id="elssoqqx01ce" class="animable"></path><path d="M106.05,402.14a5.91,5.91,0,0,0,3.51,1s-.59-2.31,1.12-3.09,4.44-1.81,5-.88a10.29,10.29,0,0,1,.64,3.32s4.07,3.69,7.09,4.73,7,2.1,6.62,4.89-4.88,6.83-11,4.05-7.22-2.88-9.18-3.18-5.61-.14-5.46-3.41-.13-8.68,1.5-9.12Z" style="fill: rgb(69, 90, 100); transform-origin: 117.221px 407.947px 0px;" id="elzlzca8xpsm" class="animable"></path><path d="M113.06,407.14a.58.58,0,0,1-.18,0,.53.53,0,0,1-.32-.67,5.7,5.7,0,0,1,4.68-3.43.52.52,0,0,1,.12,1,4.66,4.66,0,0,0-3.81,2.75A.54.54,0,0,1,113.06,407.14Z" style="fill: rgb(235, 235, 235); transform-origin: 115.111px 405.094px 0px;" id="el9m7ufhf2ai9" class="animable"></path><path d="M116.18,409.2l-.17,0a.51.51,0,0,1-.32-.66,5.47,5.47,0,0,1,4.54-3.45.52.52,0,0,1,.13,1,4.51,4.51,0,0,0-3.68,2.74A.53.53,0,0,1,116.18,409.2Z" style="fill: rgb(235, 235, 235); transform-origin: 118.172px 407.145px 0px;" id="elexpm1tfyadl" class="animable"></path><path d="M120.12,410.83H120a.53.53,0,0,1-.42-.61,4.12,4.12,0,0,1,4.29-3.33.53.53,0,0,1,.51.54.51.51,0,0,1-.54.51,3.11,3.11,0,0,0-3.23,2.47A.53.53,0,0,1,120.12,410.83Z" style="fill: rgb(235, 235, 235); transform-origin: 121.975px 408.855px 0px;" id="eltfba3tyf75b" class="animable"></path></g><g id="freepik--Clouds--inject-13" style="transform-origin: 133.955px 99.4981px 0px;" class="animable"><path d="M189.51,83.24,181,88.08v-3c0-.22,0-.43,0-.64s0-.41,0-.61v-.07h0c-.31-4-3.33-5.52-7-3.39a13.53,13.53,0,0,0-4.19,4C169,79,164.56,77,159.22,80.09c-5.94,3.43-10.75,11.76-10.75,18.61v6.45a2.91,2.91,0,0,1-1.45,2.52l-5,2.94a7.19,7.19,0,0,0-3.56,6.22,3,3,0,0,0,4.45,2.57l46.47-26.84a8.13,8.13,0,0,0,4.06-7A2.63,2.63,0,0,0,189.51,83.24Z" style="fill: rgb(230, 230, 230); transform-origin: 165.951px 99.2031px 0px;" id="elprntmlfm4ic" class="animable"></path><path d="M112.33,93.24,106,96.82V94.59c0-.16,0-.32,0-.47s0-.31,0-.45v0h0c-.23-3-2.46-4.08-5.19-2.51a10,10,0,0,0-3.09,3c-.62-4-3.89-5.45-7.84-3.17a17.58,17.58,0,0,0-8,13.77v4.77a2.15,2.15,0,0,1-1.07,1.86l-3.7,2.17a5.35,5.35,0,0,0-2.64,4.61,2.2,2.2,0,0,0,3.3,1.9l34.38-19.86a6,6,0,0,0,3-5.2A2,2,0,0,0,112.33,93.24Z" style="fill: rgb(230, 230, 230); transform-origin: 94.8086px 105.137px 0px;" id="eliheycoflisd" class="animable"></path></g><defs>     <filter id="active" height="200%">         <feMorphology in="SourceAlpha" result="DILATED" operator="dilate" radius="2"></feMorphology>                <feFlood flood-color="#32DFEC" flood-opacity="1" result="PINK"></feFlood>        <feComposite in="PINK" in2="DILATED" operator="in" result="OUTLINE"></feComposite>        <feMerge>            <feMergeNode in="OUTLINE"></feMergeNode>            <feMergeNode in="SourceGraphic"></feMergeNode>        </feMerge>    </filter>    <filter id="hover" height="200%">        <feMorphology in="SourceAlpha" result="DILATED" operator="dilate" radius="2"></feMorphology>                <feFlood flood-color="#ff0000" flood-opacity="0.5" result="PINK"></feFlood>        <feComposite in="PINK" in2="DILATED" operator="in" result="OUTLINE"></feComposite>        <feMerge>            <feMergeNode in="OUTLINE"></feMergeNode>            <feMergeNode in="SourceGraphic"></feMergeNode>        </feMerge>            <feColorMatrix type="matrix" values="0   0   0   0   0                0   1   0   0   0                0   0   0   0   0                0   0   0   1   0 "></feColorMatrix>    </filter></defs></svg>